solid ascii
  facet normal -7.845895e-002 9.969174e-001 0.000000e+000
    outer loop
      vertex   -3.500000e-001 1.150000e+000 -2.250000e-001
      vertex   -4.751476e-001 1.140151e+000 -2.250000e-001
      vertex   -3.500000e-001 1.150000e+000 2.250000e-001
    endloop
  endfacet
  facet normal -7.845895e-002 9.969174e-001 -3.601917e-018
    outer loop
      vertex   -3.500000e-001 1.150000e+000 2.250000e-001
      vertex   -4.751476e-001 1.140151e+000 -2.250000e-001
      vertex   -4.751476e-001 1.140151e+000 2.250000e-001
    endloop
  endfacet
  facet normal -2.334454e-001 9.723699e-001 0.000000e+000
    outer loop
      vertex   -4.751476e-001 1.140151e+000 2.250000e-001
      vertex   -4.751476e-001 1.140151e+000 -2.250000e-001
      vertex   -5.972136e-001 1.110845e+000 -2.250000e-001
    endloop
  endfacet
  facet normal -2.334454e-001 9.723699e-001 -1.440767e-017
    outer loop
      vertex   -4.751476e-001 1.140151e+000 2.250000e-001
      vertex   -5.972136e-001 1.110845e+000 -2.250000e-001
      vertex   -5.972136e-001 1.110845e+000 2.250000e-001
    endloop
  endfacet
  facet normal -3.826836e-001 9.238794e-001 0.000000e+000
    outer loop
      vertex   -5.972136e-001 1.110845e+000 2.250000e-001
      vertex   -5.972136e-001 1.110845e+000 -2.250000e-001
      vertex   -7.131924e-001 1.062805e+000 -2.250000e-001
    endloop
  endfacet
  facet normal -3.826836e-001 9.238794e-001 0.000000e+000
    outer loop
      vertex   -5.972136e-001 1.110845e+000 2.250000e-001
      vertex   -7.131924e-001 1.062805e+000 -2.250000e-001
      vertex   -7.131924e-001 1.062805e+000 2.250000e-001
    endloop
  endfacet
  facet normal -5.224983e-001 8.526404e-001 0.000000e+000
    outer loop
      vertex   -7.131924e-001 1.062805e+000 2.250000e-001
      vertex   -7.131924e-001 1.062805e+000 -2.250000e-001
      vertex   -8.202282e-001 9.972136e-001 -2.250000e-001
    endloop
  endfacet
  facet normal -5.224983e-001 8.526404e-001 1.440767e-017
    outer loop
      vertex   -7.131924e-001 1.062805e+000 2.250000e-001
      vertex   -8.202282e-001 9.972136e-001 -2.250000e-001
      vertex   -8.202282e-001 9.972136e-001 2.250000e-001
    endloop
  endfacet
  facet normal -6.494482e-001 7.604058e-001 0.000000e+000
    outer loop
      vertex   -8.202282e-001 9.972136e-001 2.250000e-001
      vertex   -8.202282e-001 9.972136e-001 -2.250000e-001
      vertex   -9.156854e-001 9.156854e-001 2.250000e-001
    endloop
  endfacet
  facet normal -6.494482e-001 7.604058e-001 0.000000e+000
    outer loop
      vertex   -9.156854e-001 9.156854e-001 2.250000e-001
      vertex   -8.202282e-001 9.972136e-001 -2.250000e-001
      vertex   -9.156854e-001 9.156854e-001 -2.250000e-001
    endloop
  endfacet
  facet normal -7.604058e-001 6.494482e-001 0.000000e+000
    outer loop
      vertex   -9.156854e-001 9.156854e-001 2.250000e-001
      vertex   -9.156854e-001 9.156854e-001 -2.250000e-001
      vertex   -9.972136e-001 8.202282e-001 2.250000e-001
    endloop
  endfacet
  facet normal -7.604058e-001 6.494482e-001 0.000000e+000
    outer loop
      vertex   -9.972136e-001 8.202282e-001 2.250000e-001
      vertex   -9.156854e-001 9.156854e-001 -2.250000e-001
      vertex   -9.972136e-001 8.202282e-001 -2.250000e-001
    endloop
  endfacet
  facet normal -8.526404e-001 5.224983e-001 0.000000e+000
    outer loop
      vertex   -9.972136e-001 8.202282e-001 2.250000e-001
      vertex   -9.972136e-001 8.202282e-001 -2.250000e-001
      vertex   -1.062805e+000 7.131924e-001 -2.250000e-001
    endloop
  endfacet
  facet normal -8.526404e-001 5.224983e-001 -1.440767e-017
    outer loop
      vertex   -9.972136e-001 8.202282e-001 2.250000e-001
      vertex   -1.062805e+000 7.131924e-001 -2.250000e-001
      vertex   -1.062805e+000 7.131924e-001 2.250000e-001
    endloop
  endfacet
  facet normal -9.238794e-001 3.826836e-001 0.000000e+000
    outer loop
      vertex   -1.062805e+000 7.131924e-001 2.250000e-001
      vertex   -1.062805e+000 7.131924e-001 -2.250000e-001
      vertex   -1.110845e+000 5.972136e-001 -2.250000e-001
    endloop
  endfacet
  facet normal -9.238794e-001 3.826836e-001 0.000000e+000
    outer loop
      vertex   -1.062805e+000 7.131924e-001 2.250000e-001
      vertex   -1.110845e+000 5.972136e-001 -2.250000e-001
      vertex   -1.110845e+000 5.972136e-001 2.250000e-001
    endloop
  endfacet
  facet normal -9.723699e-001 2.334454e-001 0.000000e+000
    outer loop
      vertex   -1.110845e+000 5.972136e-001 2.250000e-001
      vertex   -1.110845e+000 5.972136e-001 -2.250000e-001
      vertex   -1.140151e+000 4.751476e-001 -2.250000e-001
    endloop
  endfacet
  facet normal -9.723699e-001 2.334454e-001 1.440767e-017
    outer loop
      vertex   -1.110845e+000 5.972136e-001 2.250000e-001
      vertex   -1.140151e+000 4.751476e-001 -2.250000e-001
      vertex   -1.140151e+000 4.751476e-001 2.250000e-001
    endloop
  endfacet
  facet normal -9.969174e-001 7.845895e-002 0.000000e+000
    outer loop
      vertex   -1.140151e+000 4.751476e-001 2.250000e-001
      vertex   -1.140151e+000 4.751476e-001 -2.250000e-001
      vertex   -1.150000e+000 3.500000e-001 -2.250000e-001
    endloop
  endfacet
  facet normal -9.969174e-001 7.845895e-002 3.601917e-018
    outer loop
      vertex   -1.140151e+000 4.751476e-001 2.250000e-001
      vertex   -1.150000e+000 3.500000e-001 -2.250000e-001
      vertex   -1.150000e+000 3.500000e-001 2.250000e-001
    endloop
  endfacet
  facet normal 0.000000e+000 1.000000e+000 0.000000e+000
    outer loop
      vertex   -3.500000e-001 1.150000e+000 -2.250000e-001
      vertex   -3.500000e-001 1.150000e+000 2.250000e-001
      vertex   3.500000e-001 1.150000e+000 -2.250000e-001
    endloop
  endfacet
  facet normal 0.000000e+000 1.000000e+000 -0.000000e+000
    outer loop
      vertex   3.500000e-001 1.150000e+000 -2.250000e-001
      vertex   -3.500000e-001 1.150000e+000 2.250000e-001
      vertex   3.500000e-001 1.150000e+000 2.250000e-001
    endloop
  endfacet
  facet normal -0.000000e+000 0.000000e+000 1.000000e+000
    outer loop
      vertex   -4.751476e-001 1.140151e+000 2.250000e-001
      vertex   -5.972136e-001 1.110845e+000 2.250000e-001
      vertex   -3.500000e-001 1.150000e+000 2.250000e-001
    endloop
  endfacet
  facet normal 0.000000e+000 0.000000e+000 1.000000e+000
    outer loop
      vertex   -3.500000e-001 1.150000e+000 2.250000e-001
      vertex   -5.972136e-001 1.110845e+000 2.250000e-001
      vertex   -7.131924e-001 1.062805e+000 2.250000e-001
    endloop
  endfacet
  facet normal 0.000000e+000 0.000000e+000 1.000000e+000
    outer loop
      vertex   -3.500000e-001 1.150000e+000 2.250000e-001
      vertex   -7.131924e-001 1.062805e+000 2.250000e-001
      vertex   -8.202282e-001 9.972136e-001 2.250000e-001
    endloop
  endfacet
  facet normal -0.000000e+000 0.000000e+000 1.000000e+000
    outer loop
      vertex   -8.202282e-001 9.972136e-001 2.250000e-001
      vertex   -9.156854e-001 9.156854e-001 2.250000e-001
      vertex   -3.500000e-001 1.150000e+000 2.250000e-001
    endloop
  endfacet
  facet normal 0.000000e+000 0.000000e+000 1.000000e+000
    outer loop
      vertex   -3.500000e-001 1.150000e+000 2.250000e-001
      vertex   -9.156854e-001 9.156854e-001 2.250000e-001
      vertex   -9.972136e-001 8.202282e-001 2.250000e-001
    endloop
  endfacet
  facet normal 0.000000e+000 0.000000e+000 1.000000e+000
    outer loop
      vertex   -3.500000e-001 1.150000e+000 2.250000e-001
      vertex   -9.972136e-001 8.202282e-001 2.250000e-001
      vertex   -1.062805e+000 7.131924e-001 2.250000e-001
    endloop
  endfacet
  facet normal -0.000000e+000 0.000000e+000 1.000000e+000
    outer loop
      vertex   -1.062805e+000 7.131924e-001 2.250000e-001
      vertex   -1.110845e+000 5.972136e-001 2.250000e-001
      vertex   -3.500000e-001 1.150000e+000 2.250000e-001
    endloop
  endfacet
  facet normal 0.000000e+000 0.000000e+000 1.000000e+000
    outer loop
      vertex   -3.500000e-001 1.150000e+000 2.250000e-001
      vertex   -1.110845e+000 5.972136e-001 2.250000e-001
      vertex   -1.140151e+000 4.751476e-001 2.250000e-001
    endloop
  endfacet
  facet normal 0.000000e+000 0.000000e+000 1.000000e+000
    outer loop
      vertex   -3.500000e-001 1.150000e+000 2.250000e-001
      vertex   -1.140151e+000 4.751476e-001 2.250000e-001
      vertex   -1.150000e+000 3.500000e-001 2.250000e-001
    endloop
  endfacet
  facet normal 0.000000e+000 0.000000e+000 1.000000e+000
    outer loop
      vertex   -1.150000e+000 -3.500000e-001 2.250000e-001
      vertex   1.150000e+000 -3.500000e-001 2.250000e-001
      vertex   -1.150000e+000 3.500000e-001 2.250000e-001
    endloop
  endfacet
  facet normal -0.000000e+000 0.000000e+000 1.000000e+000
    outer loop
      vertex   -1.150000e+000 3.500000e-001 2.250000e-001
      vertex   1.150000e+000 -3.500000e-001 2.250000e-001
      vertex   1.150000e+000 3.500000e-001 2.250000e-001
    endloop
  endfacet
  facet normal 0.000000e+000 0.000000e+000 1.000000e+000
    outer loop
      vertex   -1.150000e+000 3.500000e-001 2.250000e-001
      vertex   1.150000e+000 3.500000e-001 2.250000e-001
      vertex   -3.500000e-001 1.150000e+000 2.250000e-001
    endloop
  endfacet
  facet normal -0.000000e+000 0.000000e+000 1.000000e+000
    outer loop
      vertex   -3.500000e-001 1.150000e+000 2.250000e-001
      vertex   1.150000e+000 3.500000e-001 2.250000e-001
      vertex   3.500000e-001 1.150000e+000 2.250000e-001
    endloop
  endfacet
  facet normal 0.000000e+000 0.000000e+000 1.000000e+000
    outer loop
      vertex   3.500000e-001 1.150000e+000 2.250000e-001
      vertex   1.150000e+000 3.500000e-001 2.250000e-001
      vertex   1.140151e+000 4.751476e-001 2.250000e-001
    endloop
  endfacet
  facet normal 0.000000e+000 0.000000e+000 1.000000e+000
    outer loop
      vertex   3.500000e-001 1.150000e+000 2.250000e-001
      vertex   1.140151e+000 4.751476e-001 2.250000e-001
      vertex   1.110845e+000 5.972136e-001 2.250000e-001
    endloop
  endfacet
  facet normal -0.000000e+000 -0.000000e+000 1.000000e+000
    outer loop
      vertex   -1.140151e+000 -4.751476e-001 2.250000e-001
      vertex   -9.972136e-001 -8.202282e-001 2.250000e-001
      vertex   -1.150000e+000 -3.500000e-001 2.250000e-001
    endloop
  endfacet
  facet normal 0.000000e+000 0.000000e+000 1.000000e+000
    outer loop
      vertex   -1.150000e+000 -3.500000e-001 2.250000e-001
      vertex   -9.972136e-001 -8.202282e-001 2.250000e-001
      vertex   -9.156854e-001 -9.156854e-001 2.250000e-001
    endloop
  endfacet
  facet normal 0.000000e+000 0.000000e+000 1.000000e+000
    outer loop
      vertex   -1.150000e+000 -3.500000e-001 2.250000e-001
      vertex   -9.156854e-001 -9.156854e-001 2.250000e-001
      vertex   -8.202282e-001 -9.972136e-001 2.250000e-001
    endloop
  endfacet
  facet normal 0.000000e+000 0.000000e+000 1.000000e+000
    outer loop
      vertex   -1.140151e+000 -4.751476e-001 2.250000e-001
      vertex   -1.110845e+000 -5.972136e-001 2.250000e-001
      vertex   -9.972136e-001 -8.202282e-001 2.250000e-001
    endloop
  endfacet
  facet normal 0.000000e+000 0.000000e+000 1.000000e+000
    outer loop
      vertex   -9.972136e-001 -8.202282e-001 2.250000e-001
      vertex   -1.110845e+000 -5.972136e-001 2.250000e-001
      vertex   -1.062805e+000 -7.131924e-001 2.250000e-001
    endloop
  endfacet
  facet normal -0.000000e+000 -0.000000e+000 1.000000e+000
    outer loop
      vertex   -8.202282e-001 -9.972136e-001 2.250000e-001
      vertex   -7.131924e-001 -1.062805e+000 2.250000e-001
      vertex   -1.150000e+000 -3.500000e-001 2.250000e-001
    endloop
  endfacet
  facet normal 0.000000e+000 0.000000e+000 1.000000e+000
    outer loop
      vertex   -1.150000e+000 -3.500000e-001 2.250000e-001
      vertex   -7.131924e-001 -1.062805e+000 2.250000e-001
      vertex   -5.972136e-001 -1.110845e+000 2.250000e-001
    endloop
  endfacet
  facet normal 0.000000e+000 0.000000e+000 1.000000e+000
    outer loop
      vertex   -1.150000e+000 -3.500000e-001 2.250000e-001
      vertex   -5.972136e-001 -1.110845e+000 2.250000e-001
      vertex   -4.751476e-001 -1.140151e+000 2.250000e-001
    endloop
  endfacet
  facet normal -0.000000e+000 -0.000000e+000 1.000000e+000
    outer loop
      vertex   -4.751476e-001 -1.140151e+000 2.250000e-001
      vertex   -3.500000e-001 -1.150000e+000 2.250000e-001
      vertex   -1.150000e+000 -3.500000e-001 2.250000e-001
    endloop
  endfacet
  facet normal 0.000000e+000 0.000000e+000 1.000000e+000
    outer loop
      vertex   -1.150000e+000 -3.500000e-001 2.250000e-001
      vertex   -3.500000e-001 -1.150000e+000 2.250000e-001
      vertex   3.500000e-001 -1.150000e+000 2.250000e-001
    endloop
  endfacet
  facet normal -0.000000e+000 0.000000e+000 1.000000e+000
    outer loop
      vertex   -1.150000e+000 -3.500000e-001 2.250000e-001
      vertex   3.500000e-001 -1.150000e+000 2.250000e-001
      vertex   1.150000e+000 -3.500000e-001 2.250000e-001
    endloop
  endfacet
  facet normal 0.000000e+000 0.000000e+000 1.000000e+000
    outer loop
      vertex   1.150000e+000 -3.500000e-001 2.250000e-001
      vertex   3.500000e-001 -1.150000e+000 2.250000e-001
      vertex   4.751476e-001 -1.140151e+000 2.250000e-001
    endloop
  endfacet
  facet normal 0.000000e+000 0.000000e+000 1.000000e+000
    outer loop
      vertex   1.150000e+000 -3.500000e-001 2.250000e-001
      vertex   4.751476e-001 -1.140151e+000 2.250000e-001
      vertex   5.972136e-001 -1.110845e+000 2.250000e-001
    endloop
  endfacet
  facet normal 0.000000e+000 0.000000e+000 1.000000e+000
    outer loop
      vertex   5.972136e-001 -1.110845e+000 2.250000e-001
      vertex   7.131924e-001 -1.062805e+000 2.250000e-001
      vertex   1.150000e+000 -3.500000e-001 2.250000e-001
    endloop
  endfacet
  facet normal 0.000000e+000 0.000000e+000 1.000000e+000
    outer loop
      vertex   1.150000e+000 -3.500000e-001 2.250000e-001
      vertex   7.131924e-001 -1.062805e+000 2.250000e-001
      vertex   8.202282e-001 -9.972136e-001 2.250000e-001
    endloop
  endfacet
  facet normal 0.000000e+000 0.000000e+000 1.000000e+000
    outer loop
      vertex   1.150000e+000 -3.500000e-001 2.250000e-001
      vertex   8.202282e-001 -9.972136e-001 2.250000e-001
      vertex   9.156854e-001 -9.156854e-001 2.250000e-001
    endloop
  endfacet
  facet normal 0.000000e+000 -0.000000e+000 1.000000e+000
    outer loop
      vertex   9.972136e-001 -8.202282e-001 2.250000e-001
      vertex   1.062805e+000 -7.131924e-001 2.250000e-001
      vertex   9.156854e-001 -9.156854e-001 2.250000e-001
    endloop
  endfacet
  facet normal 0.000000e+000 0.000000e+000 1.000000e+000
    outer loop
      vertex   9.156854e-001 -9.156854e-001 2.250000e-001
      vertex   1.062805e+000 -7.131924e-001 2.250000e-001
      vertex   1.110845e+000 -5.972136e-001 2.250000e-001
    endloop
  endfacet
  facet normal 0.000000e+000 0.000000e+000 1.000000e+000
    outer loop
      vertex   9.156854e-001 -9.156854e-001 2.250000e-001
      vertex   1.110845e+000 -5.972136e-001 2.250000e-001
      vertex   1.140151e+000 -4.751476e-001 2.250000e-001
    endloop
  endfacet
  facet normal 0.000000e+000 -0.000000e+000 1.000000e+000
    outer loop
      vertex   1.140151e+000 -4.751476e-001 2.250000e-001
      vertex   1.150000e+000 -3.500000e-001 2.250000e-001
      vertex   9.156854e-001 -9.156854e-001 2.250000e-001
    endloop
  endfacet
  facet normal 0.000000e+000 0.000000e+000 1.000000e+000
    outer loop
      vertex   1.110845e+000 5.972136e-001 2.250000e-001
      vertex   1.062805e+000 7.131924e-001 2.250000e-001
      vertex   3.500000e-001 1.150000e+000 2.250000e-001
    endloop
  endfacet
  facet normal 0.000000e+000 0.000000e+000 1.000000e+000
    outer loop
      vertex   3.500000e-001 1.150000e+000 2.250000e-001
      vertex   1.062805e+000 7.131924e-001 2.250000e-001
      vertex   9.972136e-001 8.202282e-001 2.250000e-001
    endloop
  endfacet
  facet normal 0.000000e+000 0.000000e+000 1.000000e+000
    outer loop
      vertex   3.500000e-001 1.150000e+000 2.250000e-001
      vertex   9.972136e-001 8.202282e-001 2.250000e-001
      vertex   9.156854e-001 9.156854e-001 2.250000e-001
    endloop
  endfacet
  facet normal 0.000000e+000 0.000000e+000 1.000000e+000
    outer loop
      vertex   9.156854e-001 9.156854e-001 2.250000e-001
      vertex   8.202282e-001 9.972136e-001 2.250000e-001
      vertex   3.500000e-001 1.150000e+000 2.250000e-001
    endloop
  endfacet
  facet normal 0.000000e+000 0.000000e+000 1.000000e+000
    outer loop
      vertex   3.500000e-001 1.150000e+000 2.250000e-001
      vertex   8.202282e-001 9.972136e-001 2.250000e-001
      vertex   7.131924e-001 1.062805e+000 2.250000e-001
    endloop
  endfacet
  facet normal 0.000000e+000 0.000000e+000 1.000000e+000
    outer loop
      vertex   3.500000e-001 1.150000e+000 2.250000e-001
      vertex   7.131924e-001 1.062805e+000 2.250000e-001
      vertex   5.972136e-001 1.110845e+000 2.250000e-001
    endloop
  endfacet
  facet normal 0.000000e+000 0.000000e+000 1.000000e+000
    outer loop
      vertex   5.972136e-001 1.110845e+000 2.250000e-001
      vertex   4.751476e-001 1.140151e+000 2.250000e-001
      vertex   3.500000e-001 1.150000e+000 2.250000e-001
    endloop
  endfacet
  facet normal 9.969174e-001 7.845895e-002 -0.000000e+000
    outer loop
      vertex   1.150000e+000 3.500000e-001 -2.250000e-001
      vertex   1.140151e+000 4.751476e-001 -2.250000e-001
      vertex   1.150000e+000 3.500000e-001 2.250000e-001
    endloop
  endfacet
  facet normal 9.969174e-001 7.845895e-002 -3.601917e-018
    outer loop
      vertex   1.150000e+000 3.500000e-001 2.250000e-001
      vertex   1.140151e+000 4.751476e-001 -2.250000e-001
      vertex   1.140151e+000 4.751476e-001 2.250000e-001
    endloop
  endfacet
  facet normal 9.723699e-001 2.334454e-001 0.000000e+000
    outer loop
      vertex   1.140151e+000 4.751476e-001 2.250000e-001
      vertex   1.140151e+000 4.751476e-001 -2.250000e-001
      vertex   1.110845e+000 5.972136e-001 -2.250000e-001
    endloop
  endfacet
  facet normal 9.723699e-001 2.334454e-001 -1.440767e-017
    outer loop
      vertex   1.140151e+000 4.751476e-001 2.250000e-001
      vertex   1.110845e+000 5.972136e-001 -2.250000e-001
      vertex   1.110845e+000 5.972136e-001 2.250000e-001
    endloop
  endfacet
  facet normal 9.238794e-001 3.826836e-001 0.000000e+000
    outer loop
      vertex   1.110845e+000 5.972136e-001 2.250000e-001
      vertex   1.110845e+000 5.972136e-001 -2.250000e-001
      vertex   1.062805e+000 7.131924e-001 -2.250000e-001
    endloop
  endfacet
  facet normal 9.238794e-001 3.826836e-001 0.000000e+000
    outer loop
      vertex   1.110845e+000 5.972136e-001 2.250000e-001
      vertex   1.062805e+000 7.131924e-001 -2.250000e-001
      vertex   1.062805e+000 7.131924e-001 2.250000e-001
    endloop
  endfacet
  facet normal 8.526404e-001 5.224983e-001 0.000000e+000
    outer loop
      vertex   1.062805e+000 7.131924e-001 2.250000e-001
      vertex   1.062805e+000 7.131924e-001 -2.250000e-001
      vertex   9.972136e-001 8.202282e-001 -2.250000e-001
    endloop
  endfacet
  facet normal 8.526404e-001 5.224983e-001 1.440767e-017
    outer loop
      vertex   1.062805e+000 7.131924e-001 2.250000e-001
      vertex   9.972136e-001 8.202282e-001 -2.250000e-001
      vertex   9.972136e-001 8.202282e-001 2.250000e-001
    endloop
  endfacet
  facet normal 7.604058e-001 6.494482e-001 0.000000e+000
    outer loop
      vertex   9.972136e-001 8.202282e-001 2.250000e-001
      vertex   9.972136e-001 8.202282e-001 -2.250000e-001
      vertex   9.156854e-001 9.156854e-001 2.250000e-001
    endloop
  endfacet
  facet normal 7.604058e-001 6.494482e-001 0.000000e+000
    outer loop
      vertex   9.156854e-001 9.156854e-001 2.250000e-001
      vertex   9.972136e-001 8.202282e-001 -2.250000e-001
      vertex   9.156854e-001 9.156854e-001 -2.250000e-001
    endloop
  endfacet
  facet normal 6.494482e-001 7.604058e-001 0.000000e+000
    outer loop
      vertex   9.156854e-001 9.156854e-001 2.250000e-001
      vertex   9.156854e-001 9.156854e-001 -2.250000e-001
      vertex   8.202282e-001 9.972136e-001 2.250000e-001
    endloop
  endfacet
  facet normal 6.494482e-001 7.604058e-001 0.000000e+000
    outer loop
      vertex   8.202282e-001 9.972136e-001 2.250000e-001
      vertex   9.156854e-001 9.156854e-001 -2.250000e-001
      vertex   8.202282e-001 9.972136e-001 -2.250000e-001
    endloop
  endfacet
  facet normal 5.224983e-001 8.526404e-001 0.000000e+000
    outer loop
      vertex   8.202282e-001 9.972136e-001 2.250000e-001
      vertex   8.202282e-001 9.972136e-001 -2.250000e-001
      vertex   7.131924e-001 1.062805e+000 -2.250000e-001
    endloop
  endfacet
  facet normal 5.224983e-001 8.526404e-001 -1.440767e-017
    outer loop
      vertex   8.202282e-001 9.972136e-001 2.250000e-001
      vertex   7.131924e-001 1.062805e+000 -2.250000e-001
      vertex   7.131924e-001 1.062805e+000 2.250000e-001
    endloop
  endfacet
  facet normal 3.826836e-001 9.238794e-001 0.000000e+000
    outer loop
      vertex   7.131924e-001 1.062805e+000 2.250000e-001
      vertex   7.131924e-001 1.062805e+000 -2.250000e-001
      vertex   5.972136e-001 1.110845e+000 -2.250000e-001
    endloop
  endfacet
  facet normal 3.826836e-001 9.238794e-001 0.000000e+000
    outer loop
      vertex   7.131924e-001 1.062805e+000 2.250000e-001
      vertex   5.972136e-001 1.110845e+000 -2.250000e-001
      vertex   5.972136e-001 1.110845e+000 2.250000e-001
    endloop
  endfacet
  facet normal 2.334454e-001 9.723699e-001 0.000000e+000
    outer loop
      vertex   5.972136e-001 1.110845e+000 2.250000e-001
      vertex   5.972136e-001 1.110845e+000 -2.250000e-001
      vertex   4.751476e-001 1.140151e+000 -2.250000e-001
    endloop
  endfacet
  facet normal 2.334454e-001 9.723699e-001 1.440767e-017
    outer loop
      vertex   5.972136e-001 1.110845e+000 2.250000e-001
      vertex   4.751476e-001 1.140151e+000 -2.250000e-001
      vertex   4.751476e-001 1.140151e+000 2.250000e-001
    endloop
  endfacet
  facet normal 7.845895e-002 9.969174e-001 0.000000e+000
    outer loop
      vertex   4.751476e-001 1.140151e+000 2.250000e-001
      vertex   4.751476e-001 1.140151e+000 -2.250000e-001
      vertex   3.500000e-001 1.150000e+000 -2.250000e-001
    endloop
  endfacet
  facet normal 7.845895e-002 9.969174e-001 3.601917e-018
    outer loop
      vertex   4.751476e-001 1.140151e+000 2.250000e-001
      vertex   3.500000e-001 1.150000e+000 -2.250000e-001
      vertex   3.500000e-001 1.150000e+000 2.250000e-001
    endloop
  endfacet
  facet normal 1.000000e+000 0.000000e+000 -0.000000e+000
    outer loop
      vertex   1.150000e+000 3.500000e-001 -2.250000e-001
      vertex   1.150000e+000 3.500000e-001 2.250000e-001
      vertex   1.150000e+000 -3.500000e-001 -2.250000e-001
    endloop
  endfacet
  facet normal 1.000000e+000 0.000000e+000 0.000000e+000
    outer loop
      vertex   1.150000e+000 -3.500000e-001 -2.250000e-001
      vertex   1.150000e+000 3.500000e-001 2.250000e-001
      vertex   1.150000e+000 -3.500000e-001 2.250000e-001
    endloop
  endfacet
  facet normal -9.969174e-001 -7.845895e-002 0.000000e+000
    outer loop
      vertex   -1.150000e+000 -3.500000e-001 -2.250000e-001
      vertex   -1.140151e+000 -4.751476e-001 -2.250000e-001
      vertex   -1.150000e+000 -3.500000e-001 2.250000e-001
    endloop
  endfacet
  facet normal -9.969174e-001 -7.845895e-002 -3.601917e-018
    outer loop
      vertex   -1.150000e+000 -3.500000e-001 2.250000e-001
      vertex   -1.140151e+000 -4.751476e-001 -2.250000e-001
      vertex   -1.140151e+000 -4.751476e-001 2.250000e-001
    endloop
  endfacet
  facet normal -9.723699e-001 -2.334454e-001 -0.000000e+000
    outer loop
      vertex   -1.140151e+000 -4.751476e-001 2.250000e-001
      vertex   -1.140151e+000 -4.751476e-001 -2.250000e-001
      vertex   -1.110845e+000 -5.972136e-001 -2.250000e-001
    endloop
  endfacet
  facet normal -9.723699e-001 -2.334454e-001 -1.440767e-017
    outer loop
      vertex   -1.140151e+000 -4.751476e-001 2.250000e-001
      vertex   -1.110845e+000 -5.972136e-001 -2.250000e-001
      vertex   -1.110845e+000 -5.972136e-001 2.250000e-001
    endloop
  endfacet
  facet normal -9.238794e-001 -3.826836e-001 -0.000000e+000
    outer loop
      vertex   -1.110845e+000 -5.972136e-001 2.250000e-001
      vertex   -1.110845e+000 -5.972136e-001 -2.250000e-001
      vertex   -1.062805e+000 -7.131924e-001 -2.250000e-001
    endloop
  endfacet
  facet normal -9.238794e-001 -3.826836e-001 0.000000e+000
    outer loop
      vertex   -1.110845e+000 -5.972136e-001 2.250000e-001
      vertex   -1.062805e+000 -7.131924e-001 -2.250000e-001
      vertex   -1.062805e+000 -7.131924e-001 2.250000e-001
    endloop
  endfacet
  facet normal -8.526404e-001 -5.224983e-001 -0.000000e+000
    outer loop
      vertex   -1.062805e+000 -7.131924e-001 2.250000e-001
      vertex   -1.062805e+000 -7.131924e-001 -2.250000e-001
      vertex   -9.972136e-001 -8.202282e-001 -2.250000e-001
    endloop
  endfacet
  facet normal -8.526404e-001 -5.224983e-001 1.440767e-017
    outer loop
      vertex   -1.062805e+000 -7.131924e-001 2.250000e-001
      vertex   -9.972136e-001 -8.202282e-001 -2.250000e-001
      vertex   -9.972136e-001 -8.202282e-001 2.250000e-001
    endloop
  endfacet
  facet normal -7.604058e-001 -6.494482e-001 -0.000000e+000
    outer loop
      vertex   -9.972136e-001 -8.202282e-001 2.250000e-001
      vertex   -9.972136e-001 -8.202282e-001 -2.250000e-001
      vertex   -9.156854e-001 -9.156854e-001 2.250000e-001
    endloop
  endfacet
  facet normal -7.604058e-001 -6.494482e-001 -0.000000e+000
    outer loop
      vertex   -9.156854e-001 -9.156854e-001 2.250000e-001
      vertex   -9.972136e-001 -8.202282e-001 -2.250000e-001
      vertex   -9.156854e-001 -9.156854e-001 -2.250000e-001
    endloop
  endfacet
  facet normal -6.494482e-001 -7.604058e-001 -0.000000e+000
    outer loop
      vertex   -9.156854e-001 -9.156854e-001 2.250000e-001
      vertex   -9.156854e-001 -9.156854e-001 -2.250000e-001
      vertex   -8.202282e-001 -9.972136e-001 2.250000e-001
    endloop
  endfacet
  facet normal -6.494482e-001 -7.604058e-001 -0.000000e+000
    outer loop
      vertex   -8.202282e-001 -9.972136e-001 2.250000e-001
      vertex   -9.156854e-001 -9.156854e-001 -2.250000e-001
      vertex   -8.202282e-001 -9.972136e-001 -2.250000e-001
    endloop
  endfacet
  facet normal -5.224983e-001 -8.526404e-001 -0.000000e+000
    outer loop
      vertex   -8.202282e-001 -9.972136e-001 2.250000e-001
      vertex   -8.202282e-001 -9.972136e-001 -2.250000e-001
      vertex   -7.131924e-001 -1.062805e+000 -2.250000e-001
    endloop
  endfacet
  facet normal -5.224983e-001 -8.526404e-001 -1.440767e-017
    outer loop
      vertex   -8.202282e-001 -9.972136e-001 2.250000e-001
      vertex   -7.131924e-001 -1.062805e+000 -2.250000e-001
      vertex   -7.131924e-001 -1.062805e+000 2.250000e-001
    endloop
  endfacet
  facet normal -3.826836e-001 -9.238794e-001 -0.000000e+000
    outer loop
      vertex   -7.131924e-001 -1.062805e+000 2.250000e-001
      vertex   -7.131924e-001 -1.062805e+000 -2.250000e-001
      vertex   -5.972136e-001 -1.110845e+000 -2.250000e-001
    endloop
  endfacet
  facet normal -3.826836e-001 -9.238794e-001 0.000000e+000
    outer loop
      vertex   -7.131924e-001 -1.062805e+000 2.250000e-001
      vertex   -5.972136e-001 -1.110845e+000 -2.250000e-001
      vertex   -5.972136e-001 -1.110845e+000 2.250000e-001
    endloop
  endfacet
  facet normal -2.334454e-001 -9.723699e-001 -0.000000e+000
    outer loop
      vertex   -5.972136e-001 -1.110845e+000 2.250000e-001
      vertex   -5.972136e-001 -1.110845e+000 -2.250000e-001
      vertex   -4.751476e-001 -1.140151e+000 -2.250000e-001
    endloop
  endfacet
  facet normal -2.334454e-001 -9.723699e-001 1.440767e-017
    outer loop
      vertex   -5.972136e-001 -1.110845e+000 2.250000e-001
      vertex   -4.751476e-001 -1.140151e+000 -2.250000e-001
      vertex   -4.751476e-001 -1.140151e+000 2.250000e-001
    endloop
  endfacet
  facet normal -7.845895e-002 -9.969174e-001 -0.000000e+000
    outer loop
      vertex   -4.751476e-001 -1.140151e+000 2.250000e-001
      vertex   -4.751476e-001 -1.140151e+000 -2.250000e-001
      vertex   -3.500000e-001 -1.150000e+000 -2.250000e-001
    endloop
  endfacet
  facet normal -7.845895e-002 -9.969174e-001 3.601917e-018
    outer loop
      vertex   -4.751476e-001 -1.140151e+000 2.250000e-001
      vertex   -3.500000e-001 -1.150000e+000 -2.250000e-001
      vertex   -3.500000e-001 -1.150000e+000 2.250000e-001
    endloop
  endfacet
  facet normal -1.000000e+000 -0.000000e+000 -0.000000e+000
    outer loop
      vertex   -1.150000e+000 3.500000e-001 2.250000e-001
      vertex   -1.150000e+000 3.500000e-001 -2.250000e-001
      vertex   -1.150000e+000 -3.500000e-001 2.250000e-001
    endloop
  endfacet
  facet normal -1.000000e+000 0.000000e+000 0.000000e+000
    outer loop
      vertex   -1.150000e+000 -3.500000e-001 2.250000e-001
      vertex   -1.150000e+000 3.500000e-001 -2.250000e-001
      vertex   -1.150000e+000 -3.500000e-001 -2.250000e-001
    endloop
  endfacet
  facet normal 7.845895e-002 -9.969174e-001 0.000000e+000
    outer loop
      vertex   3.500000e-001 -1.150000e+000 -2.250000e-001
      vertex   4.751476e-001 -1.140151e+000 -2.250000e-001
      vertex   3.500000e-001 -1.150000e+000 2.250000e-001
    endloop
  endfacet
  facet normal 7.845895e-002 -9.969174e-001 -3.601917e-018
    outer loop
      vertex   3.500000e-001 -1.150000e+000 2.250000e-001
      vertex   4.751476e-001 -1.140151e+000 -2.250000e-001
      vertex   4.751476e-001 -1.140151e+000 2.250000e-001
    endloop
  endfacet
  facet normal 2.334454e-001 -9.723699e-001 0.000000e+000
    outer loop
      vertex   4.751476e-001 -1.140151e+000 2.250000e-001
      vertex   4.751476e-001 -1.140151e+000 -2.250000e-001
      vertex   5.972136e-001 -1.110845e+000 -2.250000e-001
    endloop
  endfacet
  facet normal 2.334454e-001 -9.723699e-001 -1.440767e-017
    outer loop
      vertex   4.751476e-001 -1.140151e+000 2.250000e-001
      vertex   5.972136e-001 -1.110845e+000 -2.250000e-001
      vertex   5.972136e-001 -1.110845e+000 2.250000e-001
    endloop
  endfacet
  facet normal 3.826836e-001 -9.238794e-001 0.000000e+000
    outer loop
      vertex   5.972136e-001 -1.110845e+000 2.250000e-001
      vertex   5.972136e-001 -1.110845e+000 -2.250000e-001
      vertex   7.131924e-001 -1.062805e+000 -2.250000e-001
    endloop
  endfacet
  facet normal 3.826836e-001 -9.238794e-001 0.000000e+000
    outer loop
      vertex   5.972136e-001 -1.110845e+000 2.250000e-001
      vertex   7.131924e-001 -1.062805e+000 -2.250000e-001
      vertex   7.131924e-001 -1.062805e+000 2.250000e-001
    endloop
  endfacet
  facet normal 5.224983e-001 -8.526404e-001 0.000000e+000
    outer loop
      vertex   7.131924e-001 -1.062805e+000 2.250000e-001
      vertex   7.131924e-001 -1.062805e+000 -2.250000e-001
      vertex   8.202282e-001 -9.972136e-001 -2.250000e-001
    endloop
  endfacet
  facet normal 5.224983e-001 -8.526404e-001 1.440767e-017
    outer loop
      vertex   7.131924e-001 -1.062805e+000 2.250000e-001
      vertex   8.202282e-001 -9.972136e-001 -2.250000e-001
      vertex   8.202282e-001 -9.972136e-001 2.250000e-001
    endloop
  endfacet
  facet normal 6.494482e-001 -7.604058e-001 0.000000e+000
    outer loop
      vertex   8.202282e-001 -9.972136e-001 2.250000e-001
      vertex   8.202282e-001 -9.972136e-001 -2.250000e-001
      vertex   9.156854e-001 -9.156854e-001 2.250000e-001
    endloop
  endfacet
  facet normal 6.494482e-001 -7.604058e-001 0.000000e+000
    outer loop
      vertex   9.156854e-001 -9.156854e-001 2.250000e-001
      vertex   8.202282e-001 -9.972136e-001 -2.250000e-001
      vertex   9.156854e-001 -9.156854e-001 -2.250000e-001
    endloop
  endfacet
  facet normal 7.604058e-001 -6.494482e-001 0.000000e+000
    outer loop
      vertex   9.156854e-001 -9.156854e-001 2.250000e-001
      vertex   9.156854e-001 -9.156854e-001 -2.250000e-001
      vertex   9.972136e-001 -8.202282e-001 2.250000e-001
    endloop
  endfacet
  facet normal 7.604058e-001 -6.494482e-001 0.000000e+000
    outer loop
      vertex   9.972136e-001 -8.202282e-001 2.250000e-001
      vertex   9.156854e-001 -9.156854e-001 -2.250000e-001
      vertex   9.972136e-001 -8.202282e-001 -2.250000e-001
    endloop
  endfacet
  facet normal 8.526404e-001 -5.224983e-001 0.000000e+000
    outer loop
      vertex   9.972136e-001 -8.202282e-001 2.250000e-001
      vertex   9.972136e-001 -8.202282e-001 -2.250000e-001
      vertex   1.062805e+000 -7.131924e-001 -2.250000e-001
    endloop
  endfacet
  facet normal 8.526404e-001 -5.224983e-001 -1.440767e-017
    outer loop
      vertex   9.972136e-001 -8.202282e-001 2.250000e-001
      vertex   1.062805e+000 -7.131924e-001 -2.250000e-001
      vertex   1.062805e+000 -7.131924e-001 2.250000e-001
    endloop
  endfacet
  facet normal 9.238794e-001 -3.826836e-001 0.000000e+000
    outer loop
      vertex   1.062805e+000 -7.131924e-001 2.250000e-001
      vertex   1.062805e+000 -7.131924e-001 -2.250000e-001
      vertex   1.110845e+000 -5.972136e-001 -2.250000e-001
    endloop
  endfacet
  facet normal 9.238794e-001 -3.826836e-001 0.000000e+000
    outer loop
      vertex   1.062805e+000 -7.131924e-001 2.250000e-001
      vertex   1.110845e+000 -5.972136e-001 -2.250000e-001
      vertex   1.110845e+000 -5.972136e-001 2.250000e-001
    endloop
  endfacet
  facet normal 9.723699e-001 -2.334454e-001 0.000000e+000
    outer loop
      vertex   1.110845e+000 -5.972136e-001 2.250000e-001
      vertex   1.110845e+000 -5.972136e-001 -2.250000e-001
      vertex   1.140151e+000 -4.751476e-001 -2.250000e-001
    endloop
  endfacet
  facet normal 9.723699e-001 -2.334454e-001 1.440767e-017
    outer loop
      vertex   1.110845e+000 -5.972136e-001 2.250000e-001
      vertex   1.140151e+000 -4.751476e-001 -2.250000e-001
      vertex   1.140151e+000 -4.751476e-001 2.250000e-001
    endloop
  endfacet
  facet normal 9.969174e-001 -7.845895e-002 0.000000e+000
    outer loop
      vertex   1.140151e+000 -4.751476e-001 2.250000e-001
      vertex   1.140151e+000 -4.751476e-001 -2.250000e-001
      vertex   1.150000e+000 -3.500000e-001 -2.250000e-001
    endloop
  endfacet
  facet normal 9.969174e-001 -7.845895e-002 3.601917e-018
    outer loop
      vertex   1.140151e+000 -4.751476e-001 2.250000e-001
      vertex   1.150000e+000 -3.500000e-001 -2.250000e-001
      vertex   1.150000e+000 -3.500000e-001 2.250000e-001
    endloop
  endfacet
  facet normal 0.000000e+000 -0.000000e+000 -1.000000e+000
    outer loop
      vertex   -1.140151e+000 4.751476e-001 -2.250000e-001
      vertex   -3.500000e-001 1.150000e+000 -2.250000e-001
      vertex   -1.150000e+000 3.500000e-001 -2.250000e-001
    endloop
  endfacet
  facet normal 0.000000e+000 0.000000e+000 -1.000000e+000
    outer loop
      vertex   -1.150000e+000 3.500000e-001 -2.250000e-001
      vertex   -3.500000e-001 1.150000e+000 -2.250000e-001
      vertex   3.500000e-001 1.150000e+000 -2.250000e-001
    endloop
  endfacet
  facet normal 0.000000e+000 0.000000e+000 -1.000000e+000
    outer loop
      vertex   -1.150000e+000 3.500000e-001 -2.250000e-001
      vertex   3.500000e-001 1.150000e+000 -2.250000e-001
      vertex   1.150000e+000 3.500000e-001 -2.250000e-001
    endloop
  endfacet
  facet normal 0.000000e+000 0.000000e+000 -1.000000e+000
    outer loop
      vertex   1.150000e+000 3.500000e-001 -2.250000e-001
      vertex   3.500000e-001 1.150000e+000 -2.250000e-001
      vertex   1.140151e+000 4.751476e-001 -2.250000e-001
    endloop
  endfacet
  facet normal 0.000000e+000 0.000000e+000 -1.000000e+000
    outer loop
      vertex   1.140151e+000 4.751476e-001 -2.250000e-001
      vertex   3.500000e-001 1.150000e+000 -2.250000e-001
      vertex   1.110845e+000 5.972136e-001 -2.250000e-001
    endloop
  endfacet
  facet normal 0.000000e+000 0.000000e+000 -1.000000e+000
    outer loop
      vertex   1.110845e+000 5.972136e-001 -2.250000e-001
      vertex   3.500000e-001 1.150000e+000 -2.250000e-001
      vertex   1.062805e+000 7.131924e-001 -2.250000e-001
    endloop
  endfacet
  facet normal 0.000000e+000 0.000000e+000 -1.000000e+000
    outer loop
      vertex   1.062805e+000 7.131924e-001 -2.250000e-001
      vertex   3.500000e-001 1.150000e+000 -2.250000e-001
      vertex   9.972136e-001 8.202282e-001 -2.250000e-001
    endloop
  endfacet
  facet normal 0.000000e+000 0.000000e+000 -1.000000e+000
    outer loop
      vertex   9.972136e-001 8.202282e-001 -2.250000e-001
      vertex   3.500000e-001 1.150000e+000 -2.250000e-001
      vertex   9.156854e-001 9.156854e-001 -2.250000e-001
    endloop
  endfacet
  facet normal 0.000000e+000 0.000000e+000 -1.000000e+000
    outer loop
      vertex   9.156854e-001 9.156854e-001 -2.250000e-001
      vertex   3.500000e-001 1.150000e+000 -2.250000e-001
      vertex   8.202282e-001 9.972136e-001 -2.250000e-001
    endloop
  endfacet
  facet normal 0.000000e+000 0.000000e+000 -1.000000e+000
    outer loop
      vertex   8.202282e-001 9.972136e-001 -2.250000e-001
      vertex   3.500000e-001 1.150000e+000 -2.250000e-001
      vertex   7.131924e-001 1.062805e+000 -2.250000e-001
    endloop
  endfacet
  facet normal 0.000000e+000 0.000000e+000 -1.000000e+000
    outer loop
      vertex   7.131924e-001 1.062805e+000 -2.250000e-001
      vertex   3.500000e-001 1.150000e+000 -2.250000e-001
      vertex   5.972136e-001 1.110845e+000 -2.250000e-001
    endloop
  endfacet
  facet normal 0.000000e+000 0.000000e+000 -1.000000e+000
    outer loop
      vertex   5.972136e-001 1.110845e+000 -2.250000e-001
      vertex   3.500000e-001 1.150000e+000 -2.250000e-001
      vertex   4.751476e-001 1.140151e+000 -2.250000e-001
    endloop
  endfacet
  facet normal 0.000000e+000 0.000000e+000 -1.000000e+000
    outer loop
      vertex   -1.140151e+000 4.751476e-001 -2.250000e-001
      vertex   -1.110845e+000 5.972136e-001 -2.250000e-001
      vertex   -3.500000e-001 1.150000e+000 -2.250000e-001
    endloop
  endfacet
  facet normal 0.000000e+000 0.000000e+000 -1.000000e+000
    outer loop
      vertex   -3.500000e-001 1.150000e+000 -2.250000e-001
      vertex   -1.110845e+000 5.972136e-001 -2.250000e-001
      vertex   -1.062805e+000 7.131924e-001 -2.250000e-001
    endloop
  endfacet
  facet normal 0.000000e+000 0.000000e+000 -1.000000e+000
    outer loop
      vertex   -3.500000e-001 1.150000e+000 -2.250000e-001
      vertex   -1.062805e+000 7.131924e-001 -2.250000e-001
      vertex   -9.972136e-001 8.202282e-001 -2.250000e-001
    endloop
  endfacet
  facet normal 0.000000e+000 0.000000e+000 -1.000000e+000
    outer loop
      vertex   -9.972136e-001 8.202282e-001 -2.250000e-001
      vertex   -9.156854e-001 9.156854e-001 -2.250000e-001
      vertex   -3.500000e-001 1.150000e+000 -2.250000e-001
    endloop
  endfacet
  facet normal 0.000000e+000 0.000000e+000 -1.000000e+000
    outer loop
      vertex   -3.500000e-001 1.150000e+000 -2.250000e-001
      vertex   -9.156854e-001 9.156854e-001 -2.250000e-001
      vertex   -8.202282e-001 9.972136e-001 -2.250000e-001
    endloop
  endfacet
  facet normal 0.000000e+000 0.000000e+000 -1.000000e+000
    outer loop
      vertex   -3.500000e-001 1.150000e+000 -2.250000e-001
      vertex   -8.202282e-001 9.972136e-001 -2.250000e-001
      vertex   -7.131924e-001 1.062805e+000 -2.250000e-001
    endloop
  endfacet
  facet normal 0.000000e+000 0.000000e+000 -1.000000e+000
    outer loop
      vertex   -7.131924e-001 1.062805e+000 -2.250000e-001
      vertex   -5.972136e-001 1.110845e+000 -2.250000e-001
      vertex   -3.500000e-001 1.150000e+000 -2.250000e-001
    endloop
  endfacet
  facet normal 0.000000e+000 0.000000e+000 -1.000000e+000
    outer loop
      vertex   -3.500000e-001 1.150000e+000 -2.250000e-001
      vertex   -5.972136e-001 1.110845e+000 -2.250000e-001
      vertex   -4.751476e-001 1.140151e+000 -2.250000e-001
    endloop
  endfacet
  facet normal 0.000000e+000 0.000000e+000 -1.000000e+000
    outer loop
      vertex   -1.150000e+000 3.500000e-001 -2.250000e-001
      vertex   1.150000e+000 3.500000e-001 -2.250000e-001
      vertex   -1.150000e+000 -3.500000e-001 -2.250000e-001
    endloop
  endfacet
  facet normal 0.000000e+000 0.000000e+000 -1.000000e+000
    outer loop
      vertex   -1.150000e+000 -3.500000e-001 -2.250000e-001
      vertex   1.150000e+000 3.500000e-001 -2.250000e-001
      vertex   1.150000e+000 -3.500000e-001 -2.250000e-001
    endloop
  endfacet
  facet normal 0.000000e+000 0.000000e+000 -1.000000e+000
    outer loop
      vertex   -1.150000e+000 -3.500000e-001 -2.250000e-001
      vertex   1.150000e+000 -3.500000e-001 -2.250000e-001
      vertex   -3.500000e-001 -1.150000e+000 -2.250000e-001
    endloop
  endfacet
  facet normal 0.000000e+000 0.000000e+000 -1.000000e+000
    outer loop
      vertex   -3.500000e-001 -1.150000e+000 -2.250000e-001
      vertex   1.150000e+000 -3.500000e-001 -2.250000e-001
      vertex   3.500000e-001 -1.150000e+000 -2.250000e-001
    endloop
  endfacet
  facet normal 0.000000e+000 0.000000e+000 -1.000000e+000
    outer loop
      vertex   3.500000e-001 -1.150000e+000 -2.250000e-001
      vertex   1.150000e+000 -3.500000e-001 -2.250000e-001
      vertex   4.751476e-001 -1.140151e+000 -2.250000e-001
    endloop
  endfacet
  facet normal 0.000000e+000 0.000000e+000 -1.000000e+000
    outer loop
      vertex   4.751476e-001 -1.140151e+000 -2.250000e-001
      vertex   1.150000e+000 -3.500000e-001 -2.250000e-001
      vertex   5.972136e-001 -1.110845e+000 -2.250000e-001
    endloop
  endfacet
  facet normal 0.000000e+000 0.000000e+000 -1.000000e+000
    outer loop
      vertex   5.972136e-001 -1.110845e+000 -2.250000e-001
      vertex   1.150000e+000 -3.500000e-001 -2.250000e-001
      vertex   7.131924e-001 -1.062805e+000 -2.250000e-001
    endloop
  endfacet
  facet normal 0.000000e+000 0.000000e+000 -1.000000e+000
    outer loop
      vertex   7.131924e-001 -1.062805e+000 -2.250000e-001
      vertex   1.150000e+000 -3.500000e-001 -2.250000e-001
      vertex   8.202282e-001 -9.972136e-001 -2.250000e-001
    endloop
  endfacet
  facet normal 0.000000e+000 0.000000e+000 -1.000000e+000
    outer loop
      vertex   8.202282e-001 -9.972136e-001 -2.250000e-001
      vertex   1.150000e+000 -3.500000e-001 -2.250000e-001
      vertex   9.156854e-001 -9.156854e-001 -2.250000e-001
    endloop
  endfacet
  facet normal 0.000000e+000 0.000000e+000 -1.000000e+000
    outer loop
      vertex   9.156854e-001 -9.156854e-001 -2.250000e-001
      vertex   1.150000e+000 -3.500000e-001 -2.250000e-001
      vertex   9.972136e-001 -8.202282e-001 -2.250000e-001
    endloop
  endfacet
  facet normal 0.000000e+000 0.000000e+000 -1.000000e+000
    outer loop
      vertex   9.972136e-001 -8.202282e-001 -2.250000e-001
      vertex   1.150000e+000 -3.500000e-001 -2.250000e-001
      vertex   1.140151e+000 -4.751476e-001 -2.250000e-001
    endloop
  endfacet
  facet normal 0.000000e+000 0.000000e+000 -1.000000e+000
    outer loop
      vertex   9.972136e-001 -8.202282e-001 -2.250000e-001
      vertex   1.140151e+000 -4.751476e-001 -2.250000e-001
      vertex   1.110845e+000 -5.972136e-001 -2.250000e-001
    endloop
  endfacet
  facet normal 0.000000e+000 0.000000e+000 -1.000000e+000
    outer loop
      vertex   1.110845e+000 -5.972136e-001 -2.250000e-001
      vertex   1.062805e+000 -7.131924e-001 -2.250000e-001
      vertex   9.972136e-001 -8.202282e-001 -2.250000e-001
    endloop
  endfacet
  facet normal 0.000000e+000 0.000000e+000 -1.000000e+000
    outer loop
      vertex   -3.500000e-001 -1.150000e+000 -2.250000e-001
      vertex   -4.751476e-001 -1.140151e+000 -2.250000e-001
      vertex   -1.150000e+000 -3.500000e-001 -2.250000e-001
    endloop
  endfacet
  facet normal 0.000000e+000 0.000000e+000 -1.000000e+000
    outer loop
      vertex   -1.150000e+000 -3.500000e-001 -2.250000e-001
      vertex   -4.751476e-001 -1.140151e+000 -2.250000e-001
      vertex   -5.972136e-001 -1.110845e+000 -2.250000e-001
    endloop
  endfacet
  facet normal 0.000000e+000 0.000000e+000 -1.000000e+000
    outer loop
      vertex   -1.150000e+000 -3.500000e-001 -2.250000e-001
      vertex   -5.972136e-001 -1.110845e+000 -2.250000e-001
      vertex   -7.131924e-001 -1.062805e+000 -2.250000e-001
    endloop
  endfacet
  facet normal 0.000000e+000 0.000000e+000 -1.000000e+000
    outer loop
      vertex   -7.131924e-001 -1.062805e+000 -2.250000e-001
      vertex   -8.202282e-001 -9.972136e-001 -2.250000e-001
      vertex   -1.150000e+000 -3.500000e-001 -2.250000e-001
    endloop
  endfacet
  facet normal 0.000000e+000 0.000000e+000 -1.000000e+000
    outer loop
      vertex   -1.150000e+000 -3.500000e-001 -2.250000e-001
      vertex   -8.202282e-001 -9.972136e-001 -2.250000e-001
      vertex   -9.156854e-001 -9.156854e-001 -2.250000e-001
    endloop
  endfacet
  facet normal 0.000000e+000 0.000000e+000 -1.000000e+000
    outer loop
      vertex   -1.150000e+000 -3.500000e-001 -2.250000e-001
      vertex   -9.156854e-001 -9.156854e-001 -2.250000e-001
      vertex   -1.140151e+000 -4.751476e-001 -2.250000e-001
    endloop
  endfacet
  facet normal 0.000000e+000 0.000000e+000 -1.000000e+000
    outer loop
      vertex   -1.140151e+000 -4.751476e-001 -2.250000e-001
      vertex   -9.156854e-001 -9.156854e-001 -2.250000e-001
      vertex   -1.110845e+000 -5.972136e-001 -2.250000e-001
    endloop
  endfacet
  facet normal 0.000000e+000 0.000000e+000 -1.000000e+000
    outer loop
      vertex   -1.110845e+000 -5.972136e-001 -2.250000e-001
      vertex   -9.156854e-001 -9.156854e-001 -2.250000e-001
      vertex   -1.062805e+000 -7.131924e-001 -2.250000e-001
    endloop
  endfacet
  facet normal 0.000000e+000 0.000000e+000 -1.000000e+000
    outer loop
      vertex   -1.062805e+000 -7.131924e-001 -2.250000e-001
      vertex   -9.156854e-001 -9.156854e-001 -2.250000e-001
      vertex   -9.972136e-001 -8.202282e-001 -2.250000e-001
    endloop
  endfacet
  facet normal 0.000000e+000 -1.000000e+000 0.000000e+000
    outer loop
      vertex   -3.500000e-001 -1.150000e+000 2.250000e-001
      vertex   -3.500000e-001 -1.150000e+000 -2.250000e-001
      vertex   3.500000e-001 -1.150000e+000 2.250000e-001
    endloop
  endfacet
  facet normal 0.000000e+000 -1.000000e+000 -0.000000e+000
    outer loop
      vertex   3.500000e-001 -1.150000e+000 2.250000e-001
      vertex   -3.500000e-001 -1.150000e+000 -2.250000e-001
      vertex   3.500000e-001 -1.150000e+000 -2.250000e-001
    endloop
  endfacet
endsolid
solid ascii
  facet normal -9.961947e-001 -8.715565e-002 0.000000e+000
    outer loop
      vertex   -8.000000e-001 -2.000000e-001 2.250000e-001
      vertex   -7.908847e-001 -3.041889e-001 2.250000e-001
      vertex   -8.000000e-001 -2.000000e-001 5.250000e-001
    endloop
  endfacet
  facet normal -9.961947e-001 -8.715565e-002 3.674237e-018
    outer loop
      vertex   -8.000000e-001 -2.000000e-001 5.250000e-001
      vertex   -7.908847e-001 -3.041889e-001 2.250000e-001
      vertex   -7.908847e-001 -3.041889e-001 5.250000e-001
    endloop
  endfacet
  facet normal -9.659258e-001 -2.588192e-001 -0.000000e+000
    outer loop
      vertex   -7.908847e-001 -3.041889e-001 5.250000e-001
      vertex   -7.908847e-001 -3.041889e-001 2.250000e-001
      vertex   -7.638156e-001 -4.052121e-001 2.250000e-001
    endloop
  endfacet
  facet normal -9.659258e-001 -2.588192e-001 0.000000e+000
    outer loop
      vertex   -7.908847e-001 -3.041889e-001 5.250000e-001
      vertex   -7.638156e-001 -4.052121e-001 2.250000e-001
      vertex   -7.638156e-001 -4.052121e-001 5.250000e-001
    endloop
  endfacet
  facet normal -9.063077e-001 -4.226184e-001 -0.000000e+000
    outer loop
      vertex   -7.638156e-001 -4.052121e-001 5.250000e-001
      vertex   -7.638156e-001 -4.052121e-001 2.250000e-001
      vertex   -7.196152e-001 -5.000000e-001 2.250000e-001
    endloop
  endfacet
  facet normal -9.063077e-001 -4.226184e-001 0.000000e+000
    outer loop
      vertex   -7.638156e-001 -4.052121e-001 5.250000e-001
      vertex   -7.196152e-001 -5.000000e-001 2.250000e-001
      vertex   -7.196152e-001 -5.000000e-001 5.250000e-001
    endloop
  endfacet
  facet normal -8.191521e-001 -5.735763e-001 -0.000000e+000
    outer loop
      vertex   -7.196152e-001 -5.000000e-001 5.250000e-001
      vertex   -7.196152e-001 -5.000000e-001 2.250000e-001
      vertex   -6.596267e-001 -5.856726e-001 2.250000e-001
    endloop
  endfacet
  facet normal -8.191521e-001 -5.735763e-001 -2.939390e-017
    outer loop
      vertex   -7.196152e-001 -5.000000e-001 5.250000e-001
      vertex   -6.596267e-001 -5.856726e-001 2.250000e-001
      vertex   -6.596267e-001 -5.856726e-001 5.250000e-001
    endloop
  endfacet
  facet normal -7.071068e-001 -7.071068e-001 -0.000000e+000
    outer loop
      vertex   -6.596267e-001 -5.856726e-001 5.250000e-001
      vertex   -6.596267e-001 -5.856726e-001 2.250000e-001
      vertex   -5.856726e-001 -6.596267e-001 2.250000e-001
    endloop
  endfacet
  facet normal -7.071068e-001 -7.071068e-001 0.000000e+000
    outer loop
      vertex   -6.596267e-001 -5.856726e-001 5.250000e-001
      vertex   -5.856726e-001 -6.596267e-001 2.250000e-001
      vertex   -5.856726e-001 -6.596267e-001 5.250000e-001
    endloop
  endfacet
  facet normal -5.735763e-001 -8.191521e-001 -0.000000e+000
    outer loop
      vertex   -5.856726e-001 -6.596267e-001 5.250000e-001
      vertex   -5.856726e-001 -6.596267e-001 2.250000e-001
      vertex   -5.000000e-001 -7.196152e-001 2.250000e-001
    endloop
  endfacet
  facet normal -5.735763e-001 -8.191521e-001 2.939390e-017
    outer loop
      vertex   -5.856726e-001 -6.596267e-001 5.250000e-001
      vertex   -5.000000e-001 -7.196152e-001 2.250000e-001
      vertex   -5.000000e-001 -7.196152e-001 5.250000e-001
    endloop
  endfacet
  facet normal -4.226184e-001 -9.063077e-001 -0.000000e+000
    outer loop
      vertex   -5.000000e-001 -7.196152e-001 5.250000e-001
      vertex   -5.000000e-001 -7.196152e-001 2.250000e-001
      vertex   -4.052121e-001 -7.638156e-001 2.250000e-001
    endloop
  endfacet
  facet normal -4.226184e-001 -9.063077e-001 0.000000e+000
    outer loop
      vertex   -5.000000e-001 -7.196152e-001 5.250000e-001
      vertex   -4.052121e-001 -7.638156e-001 2.250000e-001
      vertex   -4.052121e-001 -7.638156e-001 5.250000e-001
    endloop
  endfacet
  facet normal -2.588192e-001 -9.659258e-001 -0.000000e+000
    outer loop
      vertex   -4.052121e-001 -7.638156e-001 5.250000e-001
      vertex   -4.052121e-001 -7.638156e-001 2.250000e-001
      vertex   -3.041889e-001 -7.908847e-001 2.250000e-001
    endloop
  endfacet
  facet normal -2.588192e-001 -9.659258e-001 0.000000e+000
    outer loop
      vertex   -4.052121e-001 -7.638156e-001 5.250000e-001
      vertex   -3.041889e-001 -7.908847e-001 2.250000e-001
      vertex   -3.041889e-001 -7.908847e-001 5.250000e-001
    endloop
  endfacet
  facet normal -8.715565e-002 -9.961947e-001 -0.000000e+000
    outer loop
      vertex   -3.041889e-001 -7.908847e-001 5.250000e-001
      vertex   -3.041889e-001 -7.908847e-001 2.250000e-001
      vertex   -2.000000e-001 -8.000000e-001 2.250000e-001
    endloop
  endfacet
  facet normal -8.715565e-002 -9.961947e-001 -3.674237e-018
    outer loop
      vertex   -3.041889e-001 -7.908847e-001 5.250000e-001
      vertex   -2.000000e-001 -8.000000e-001 2.250000e-001
      vertex   -2.000000e-001 -8.000000e-001 5.250000e-001
    endloop
  endfacet
  facet normal -1.000000e+000 0.000000e+000 0.000000e+000
    outer loop
      vertex   -8.000000e-001 -2.000000e-001 2.250000e-001
      vertex   -8.000000e-001 -2.000000e-001 5.250000e-001
      vertex   -8.000000e-001 2.000000e-001 2.250000e-001
    endloop
  endfacet
  facet normal -1.000000e+000 0.000000e+000 0.000000e+000
    outer loop
      vertex   -8.000000e-001 2.000000e-001 2.250000e-001
      vertex   -8.000000e-001 -2.000000e-001 5.250000e-001
      vertex   -8.000000e-001 2.000000e-001 5.250000e-001
    endloop
  endfacet
  facet normal -0.000000e+000 -0.000000e+000 1.000000e+000
    outer loop
      vertex   -7.908847e-001 -3.041889e-001 5.250000e-001
      vertex   -5.000000e-001 -7.196152e-001 5.250000e-001
      vertex   -8.000000e-001 -2.000000e-001 5.250000e-001
    endloop
  endfacet
  facet normal 0.000000e+000 0.000000e+000 1.000000e+000
    outer loop
      vertex   -8.000000e-001 -2.000000e-001 5.250000e-001
      vertex   -5.000000e-001 -7.196152e-001 5.250000e-001
      vertex   -4.052121e-001 -7.638156e-001 5.250000e-001
    endloop
  endfacet
  facet normal 0.000000e+000 0.000000e+000 1.000000e+000
    outer loop
      vertex   -8.000000e-001 -2.000000e-001 5.250000e-001
      vertex   -4.052121e-001 -7.638156e-001 5.250000e-001
      vertex   -3.041889e-001 -7.908847e-001 5.250000e-001
    endloop
  endfacet
  facet normal 0.000000e+000 0.000000e+000 1.000000e+000
    outer loop
      vertex   -7.908847e-001 -3.041889e-001 5.250000e-001
      vertex   -7.638156e-001 -4.052121e-001 5.250000e-001
      vertex   -5.000000e-001 -7.196152e-001 5.250000e-001
    endloop
  endfacet
  facet normal 0.000000e+000 0.000000e+000 1.000000e+000
    outer loop
      vertex   -5.000000e-001 -7.196152e-001 5.250000e-001
      vertex   -7.638156e-001 -4.052121e-001 5.250000e-001
      vertex   -7.196152e-001 -5.000000e-001 5.250000e-001
    endloop
  endfacet
  facet normal 0.000000e+000 0.000000e+000 1.000000e+000
    outer loop
      vertex   -5.000000e-001 -7.196152e-001 5.250000e-001
      vertex   -7.196152e-001 -5.000000e-001 5.250000e-001
      vertex   -6.596267e-001 -5.856726e-001 5.250000e-001
    endloop
  endfacet
  facet normal 0.000000e+000 0.000000e+000 1.000000e+000
    outer loop
      vertex   -6.596267e-001 -5.856726e-001 5.250000e-001
      vertex   -5.856726e-001 -6.596267e-001 5.250000e-001
      vertex   -5.000000e-001 -7.196152e-001 5.250000e-001
    endloop
  endfacet
  facet normal -0.000000e+000 -0.000000e+000 1.000000e+000
    outer loop
      vertex   -3.041889e-001 -7.908847e-001 5.250000e-001
      vertex   -2.000000e-001 -8.000000e-001 5.250000e-001
      vertex   -8.000000e-001 -2.000000e-001 5.250000e-001
    endloop
  endfacet
  facet normal 0.000000e+000 0.000000e+000 1.000000e+000
    outer loop
      vertex   -8.000000e-001 -2.000000e-001 5.250000e-001
      vertex   -2.000000e-001 -8.000000e-001 5.250000e-001
      vertex   2.000000e-001 -8.000000e-001 5.250000e-001
    endloop
  endfacet
  facet normal -0.000000e+000 0.000000e+000 1.000000e+000
    outer loop
      vertex   -8.000000e-001 -2.000000e-001 5.250000e-001
      vertex   2.000000e-001 -8.000000e-001 5.250000e-001
      vertex   8.000000e-001 -2.000000e-001 5.250000e-001
    endloop
  endfacet
  facet normal 0.000000e+000 0.000000e+000 1.000000e+000
    outer loop
      vertex   8.000000e-001 -2.000000e-001 5.250000e-001
      vertex   2.000000e-001 -8.000000e-001 5.250000e-001
      vertex   3.041889e-001 -7.908847e-001 5.250000e-001
    endloop
  endfacet
  facet normal 0.000000e+000 0.000000e+000 1.000000e+000
    outer loop
      vertex   8.000000e-001 -2.000000e-001 5.250000e-001
      vertex   3.041889e-001 -7.908847e-001 5.250000e-001
      vertex   4.052121e-001 -7.638156e-001 5.250000e-001
    endloop
  endfacet
  facet normal 0.000000e+000 -0.000000e+000 1.000000e+000
    outer loop
      vertex   5.000000e-001 -7.196152e-001 5.250000e-001
      vertex   5.856726e-001 -6.596267e-001 5.250000e-001
      vertex   4.052121e-001 -7.638156e-001 5.250000e-001
    endloop
  endfacet
  facet normal 0.000000e+000 0.000000e+000 1.000000e+000
    outer loop
      vertex   4.052121e-001 -7.638156e-001 5.250000e-001
      vertex   5.856726e-001 -6.596267e-001 5.250000e-001
      vertex   6.596267e-001 -5.856726e-001 5.250000e-001
    endloop
  endfacet
  facet normal 0.000000e+000 0.000000e+000 1.000000e+000
    outer loop
      vertex   4.052121e-001 -7.638156e-001 5.250000e-001
      vertex   6.596267e-001 -5.856726e-001 5.250000e-001
      vertex   7.196152e-001 -5.000000e-001 5.250000e-001
    endloop
  endfacet
  facet normal 0.000000e+000 -0.000000e+000 1.000000e+000
    outer loop
      vertex   7.196152e-001 -5.000000e-001 5.250000e-001
      vertex   7.638156e-001 -4.052121e-001 5.250000e-001
      vertex   4.052121e-001 -7.638156e-001 5.250000e-001
    endloop
  endfacet
  facet normal 0.000000e+000 0.000000e+000 1.000000e+000
    outer loop
      vertex   4.052121e-001 -7.638156e-001 5.250000e-001
      vertex   7.638156e-001 -4.052121e-001 5.250000e-001
      vertex   7.908847e-001 -3.041889e-001 5.250000e-001
    endloop
  endfacet
  facet normal 0.000000e+000 0.000000e+000 1.000000e+000
    outer loop
      vertex   4.052121e-001 -7.638156e-001 5.250000e-001
      vertex   7.908847e-001 -3.041889e-001 5.250000e-001
      vertex   8.000000e-001 -2.000000e-001 5.250000e-001
    endloop
  endfacet
  facet normal 0.000000e+000 0.000000e+000 1.000000e+000
    outer loop
      vertex   -8.000000e-001 -2.000000e-001 5.250000e-001
      vertex   8.000000e-001 -2.000000e-001 5.250000e-001
      vertex   -8.000000e-001 2.000000e-001 5.250000e-001
    endloop
  endfacet
  facet normal -0.000000e+000 0.000000e+000 1.000000e+000
    outer loop
      vertex   -8.000000e-001 2.000000e-001 5.250000e-001
      vertex   8.000000e-001 -2.000000e-001 5.250000e-001
      vertex   8.000000e-001 2.000000e-001 5.250000e-001
    endloop
  endfacet
  facet normal 0.000000e+000 0.000000e+000 1.000000e+000
    outer loop
      vertex   -8.000000e-001 2.000000e-001 5.250000e-001
      vertex   8.000000e-001 2.000000e-001 5.250000e-001
      vertex   -2.000000e-001 8.000000e-001 5.250000e-001
    endloop
  endfacet
  facet normal -0.000000e+000 0.000000e+000 1.000000e+000
    outer loop
      vertex   -2.000000e-001 8.000000e-001 5.250000e-001
      vertex   8.000000e-001 2.000000e-001 5.250000e-001
      vertex   2.000000e-001 8.000000e-001 5.250000e-001
    endloop
  endfacet
  facet normal 0.000000e+000 0.000000e+000 1.000000e+000
    outer loop
      vertex   2.000000e-001 8.000000e-001 5.250000e-001
      vertex   8.000000e-001 2.000000e-001 5.250000e-001
      vertex   7.908847e-001 3.041889e-001 5.250000e-001
    endloop
  endfacet
  facet normal 0.000000e+000 0.000000e+000 1.000000e+000
    outer loop
      vertex   2.000000e-001 8.000000e-001 5.250000e-001
      vertex   7.908847e-001 3.041889e-001 5.250000e-001
      vertex   7.638156e-001 4.052121e-001 5.250000e-001
    endloop
  endfacet
  facet normal 0.000000e+000 0.000000e+000 1.000000e+000
    outer loop
      vertex   7.638156e-001 4.052121e-001 5.250000e-001
      vertex   7.196152e-001 5.000000e-001 5.250000e-001
      vertex   2.000000e-001 8.000000e-001 5.250000e-001
    endloop
  endfacet
  facet normal 0.000000e+000 0.000000e+000 1.000000e+000
    outer loop
      vertex   2.000000e-001 8.000000e-001 5.250000e-001
      vertex   7.196152e-001 5.000000e-001 5.250000e-001
      vertex   6.596267e-001 5.856726e-001 5.250000e-001
    endloop
  endfacet
  facet normal 0.000000e+000 0.000000e+000 1.000000e+000
    outer loop
      vertex   2.000000e-001 8.000000e-001 5.250000e-001
      vertex   6.596267e-001 5.856726e-001 5.250000e-001
      vertex   5.856726e-001 6.596267e-001 5.250000e-001
    endloop
  endfacet
  facet normal 0.000000e+000 0.000000e+000 1.000000e+000
    outer loop
      vertex   5.856726e-001 6.596267e-001 5.250000e-001
      vertex   5.000000e-001 7.196152e-001 5.250000e-001
      vertex   2.000000e-001 8.000000e-001 5.250000e-001
    endloop
  endfacet
  facet normal 0.000000e+000 0.000000e+000 1.000000e+000
    outer loop
      vertex   2.000000e-001 8.000000e-001 5.250000e-001
      vertex   5.000000e-001 7.196152e-001 5.250000e-001
      vertex   4.052121e-001 7.638156e-001 5.250000e-001
    endloop
  endfacet
  facet normal 0.000000e+000 0.000000e+000 1.000000e+000
    outer loop
      vertex   2.000000e-001 8.000000e-001 5.250000e-001
      vertex   4.052121e-001 7.638156e-001 5.250000e-001
      vertex   3.041889e-001 7.908847e-001 5.250000e-001
    endloop
  endfacet
  facet normal -0.000000e+000 0.000000e+000 1.000000e+000
    outer loop
      vertex   -3.041889e-001 7.908847e-001 5.250000e-001
      vertex   -4.052121e-001 7.638156e-001 5.250000e-001
      vertex   -2.000000e-001 8.000000e-001 5.250000e-001
    endloop
  endfacet
  facet normal 0.000000e+000 0.000000e+000 1.000000e+000
    outer loop
      vertex   -2.000000e-001 8.000000e-001 5.250000e-001
      vertex   -4.052121e-001 7.638156e-001 5.250000e-001
      vertex   -5.000000e-001 7.196152e-001 5.250000e-001
    endloop
  endfacet
  facet normal 0.000000e+000 0.000000e+000 1.000000e+000
    outer loop
      vertex   -2.000000e-001 8.000000e-001 5.250000e-001
      vertex   -5.000000e-001 7.196152e-001 5.250000e-001
      vertex   -5.856726e-001 6.596267e-001 5.250000e-001
    endloop
  endfacet
  facet normal -0.000000e+000 0.000000e+000 1.000000e+000
    outer loop
      vertex   -5.856726e-001 6.596267e-001 5.250000e-001
      vertex   -6.596267e-001 5.856726e-001 5.250000e-001
      vertex   -2.000000e-001 8.000000e-001 5.250000e-001
    endloop
  endfacet
  facet normal 0.000000e+000 0.000000e+000 1.000000e+000
    outer loop
      vertex   -2.000000e-001 8.000000e-001 5.250000e-001
      vertex   -6.596267e-001 5.856726e-001 5.250000e-001
      vertex   -7.196152e-001 5.000000e-001 5.250000e-001
    endloop
  endfacet
  facet normal 0.000000e+000 0.000000e+000 1.000000e+000
    outer loop
      vertex   -2.000000e-001 8.000000e-001 5.250000e-001
      vertex   -7.196152e-001 5.000000e-001 5.250000e-001
      vertex   -7.638156e-001 4.052121e-001 5.250000e-001
    endloop
  endfacet
  facet normal -0.000000e+000 0.000000e+000 1.000000e+000
    outer loop
      vertex   -7.638156e-001 4.052121e-001 5.250000e-001
      vertex   -7.908847e-001 3.041889e-001 5.250000e-001
      vertex   -2.000000e-001 8.000000e-001 5.250000e-001
    endloop
  endfacet
  facet normal 0.000000e+000 0.000000e+000 1.000000e+000
    outer loop
      vertex   -2.000000e-001 8.000000e-001 5.250000e-001
      vertex   -7.908847e-001 3.041889e-001 5.250000e-001
      vertex   -8.000000e-001 2.000000e-001 5.250000e-001
    endloop
  endfacet
  facet normal 8.715565e-002 -9.961947e-001 0.000000e+000
    outer loop
      vertex   2.000000e-001 -8.000000e-001 2.250000e-001
      vertex   3.041889e-001 -7.908847e-001 2.250000e-001
      vertex   2.000000e-001 -8.000000e-001 5.250000e-001
    endloop
  endfacet
  facet normal 8.715565e-002 -9.961947e-001 3.674237e-018
    outer loop
      vertex   2.000000e-001 -8.000000e-001 5.250000e-001
      vertex   3.041889e-001 -7.908847e-001 2.250000e-001
      vertex   3.041889e-001 -7.908847e-001 5.250000e-001
    endloop
  endfacet
  facet normal 2.588192e-001 -9.659258e-001 0.000000e+000
    outer loop
      vertex   3.041889e-001 -7.908847e-001 5.250000e-001
      vertex   3.041889e-001 -7.908847e-001 2.250000e-001
      vertex   4.052121e-001 -7.638156e-001 2.250000e-001
    endloop
  endfacet
  facet normal 2.588192e-001 -9.659258e-001 0.000000e+000
    outer loop
      vertex   3.041889e-001 -7.908847e-001 5.250000e-001
      vertex   4.052121e-001 -7.638156e-001 2.250000e-001
      vertex   4.052121e-001 -7.638156e-001 5.250000e-001
    endloop
  endfacet
  facet normal 4.226184e-001 -9.063077e-001 0.000000e+000
    outer loop
      vertex   4.052121e-001 -7.638156e-001 5.250000e-001
      vertex   4.052121e-001 -7.638156e-001 2.250000e-001
      vertex   5.000000e-001 -7.196152e-001 2.250000e-001
    endloop
  endfacet
  facet normal 4.226184e-001 -9.063077e-001 0.000000e+000
    outer loop
      vertex   4.052121e-001 -7.638156e-001 5.250000e-001
      vertex   5.000000e-001 -7.196152e-001 2.250000e-001
      vertex   5.000000e-001 -7.196152e-001 5.250000e-001
    endloop
  endfacet
  facet normal 5.735763e-001 -8.191521e-001 0.000000e+000
    outer loop
      vertex   5.000000e-001 -7.196152e-001 5.250000e-001
      vertex   5.000000e-001 -7.196152e-001 2.250000e-001
      vertex   5.856726e-001 -6.596267e-001 2.250000e-001
    endloop
  endfacet
  facet normal 5.735763e-001 -8.191521e-001 -2.939390e-017
    outer loop
      vertex   5.000000e-001 -7.196152e-001 5.250000e-001
      vertex   5.856726e-001 -6.596267e-001 2.250000e-001
      vertex   5.856726e-001 -6.596267e-001 5.250000e-001
    endloop
  endfacet
  facet normal 7.071068e-001 -7.071068e-001 0.000000e+000
    outer loop
      vertex   5.856726e-001 -6.596267e-001 5.250000e-001
      vertex   5.856726e-001 -6.596267e-001 2.250000e-001
      vertex   6.596267e-001 -5.856726e-001 2.250000e-001
    endloop
  endfacet
  facet normal 7.071068e-001 -7.071068e-001 0.000000e+000
    outer loop
      vertex   5.856726e-001 -6.596267e-001 5.250000e-001
      vertex   6.596267e-001 -5.856726e-001 2.250000e-001
      vertex   6.596267e-001 -5.856726e-001 5.250000e-001
    endloop
  endfacet
  facet normal 8.191521e-001 -5.735763e-001 0.000000e+000
    outer loop
      vertex   6.596267e-001 -5.856726e-001 5.250000e-001
      vertex   6.596267e-001 -5.856726e-001 2.250000e-001
      vertex   7.196152e-001 -5.000000e-001 2.250000e-001
    endloop
  endfacet
  facet normal 8.191521e-001 -5.735763e-001 2.939390e-017
    outer loop
      vertex   6.596267e-001 -5.856726e-001 5.250000e-001
      vertex   7.196152e-001 -5.000000e-001 2.250000e-001
      vertex   7.196152e-001 -5.000000e-001 5.250000e-001
    endloop
  endfacet
  facet normal 9.063077e-001 -4.226184e-001 0.000000e+000
    outer loop
      vertex   7.196152e-001 -5.000000e-001 5.250000e-001
      vertex   7.196152e-001 -5.000000e-001 2.250000e-001
      vertex   7.638156e-001 -4.052121e-001 2.250000e-001
    endloop
  endfacet
  facet normal 9.063077e-001 -4.226184e-001 0.000000e+000
    outer loop
      vertex   7.196152e-001 -5.000000e-001 5.250000e-001
      vertex   7.638156e-001 -4.052121e-001 2.250000e-001
      vertex   7.638156e-001 -4.052121e-001 5.250000e-001
    endloop
  endfacet
  facet normal 9.659258e-001 -2.588192e-001 0.000000e+000
    outer loop
      vertex   7.638156e-001 -4.052121e-001 5.250000e-001
      vertex   7.638156e-001 -4.052121e-001 2.250000e-001
      vertex   7.908847e-001 -3.041889e-001 2.250000e-001
    endloop
  endfacet
  facet normal 9.659258e-001 -2.588192e-001 0.000000e+000
    outer loop
      vertex   7.638156e-001 -4.052121e-001 5.250000e-001
      vertex   7.908847e-001 -3.041889e-001 2.250000e-001
      vertex   7.908847e-001 -3.041889e-001 5.250000e-001
    endloop
  endfacet
  facet normal 9.961947e-001 -8.715565e-002 0.000000e+000
    outer loop
      vertex   7.908847e-001 -3.041889e-001 5.250000e-001
      vertex   7.908847e-001 -3.041889e-001 2.250000e-001
      vertex   8.000000e-001 -2.000000e-001 2.250000e-001
    endloop
  endfacet
  facet normal 9.961947e-001 -8.715565e-002 -3.674237e-018
    outer loop
      vertex   7.908847e-001 -3.041889e-001 5.250000e-001
      vertex   8.000000e-001 -2.000000e-001 2.250000e-001
      vertex   8.000000e-001 -2.000000e-001 5.250000e-001
    endloop
  endfacet
  facet normal 1.000000e+000 -0.000000e+000 0.000000e+000
    outer loop
      vertex   8.000000e-001 -2.000000e-001 5.250000e-001
      vertex   8.000000e-001 -2.000000e-001 2.250000e-001
      vertex   8.000000e-001 2.000000e-001 5.250000e-001
    endloop
  endfacet
  facet normal 1.000000e+000 0.000000e+000 0.000000e+000
    outer loop
      vertex   8.000000e-001 2.000000e-001 5.250000e-001
      vertex   8.000000e-001 -2.000000e-001 2.250000e-001
      vertex   8.000000e-001 2.000000e-001 2.250000e-001
    endloop
  endfacet
  facet normal 9.961947e-001 8.715565e-002 -0.000000e+000
    outer loop
      vertex   8.000000e-001 2.000000e-001 2.250000e-001
      vertex   7.908847e-001 3.041889e-001 2.250000e-001
      vertex   8.000000e-001 2.000000e-001 5.250000e-001
    endloop
  endfacet
  facet normal 9.961947e-001 8.715565e-002 3.674237e-018
    outer loop
      vertex   8.000000e-001 2.000000e-001 5.250000e-001
      vertex   7.908847e-001 3.041889e-001 2.250000e-001
      vertex   7.908847e-001 3.041889e-001 5.250000e-001
    endloop
  endfacet
  facet normal 9.659258e-001 2.588192e-001 0.000000e+000
    outer loop
      vertex   7.908847e-001 3.041889e-001 5.250000e-001
      vertex   7.908847e-001 3.041889e-001 2.250000e-001
      vertex   7.638156e-001 4.052121e-001 2.250000e-001
    endloop
  endfacet
  facet normal 9.659258e-001 2.588192e-001 0.000000e+000
    outer loop
      vertex   7.908847e-001 3.041889e-001 5.250000e-001
      vertex   7.638156e-001 4.052121e-001 2.250000e-001
      vertex   7.638156e-001 4.052121e-001 5.250000e-001
    endloop
  endfacet
  facet normal 9.063077e-001 4.226184e-001 0.000000e+000
    outer loop
      vertex   7.638156e-001 4.052121e-001 5.250000e-001
      vertex   7.638156e-001 4.052121e-001 2.250000e-001
      vertex   7.196152e-001 5.000000e-001 2.250000e-001
    endloop
  endfacet
  facet normal 9.063077e-001 4.226184e-001 0.000000e+000
    outer loop
      vertex   7.638156e-001 4.052121e-001 5.250000e-001
      vertex   7.196152e-001 5.000000e-001 2.250000e-001
      vertex   7.196152e-001 5.000000e-001 5.250000e-001
    endloop
  endfacet
  facet normal 8.191521e-001 5.735763e-001 0.000000e+000
    outer loop
      vertex   7.196152e-001 5.000000e-001 5.250000e-001
      vertex   7.196152e-001 5.000000e-001 2.250000e-001
      vertex   6.596267e-001 5.856726e-001 2.250000e-001
    endloop
  endfacet
  facet normal 8.191521e-001 5.735763e-001 -2.939390e-017
    outer loop
      vertex   7.196152e-001 5.000000e-001 5.250000e-001
      vertex   6.596267e-001 5.856726e-001 2.250000e-001
      vertex   6.596267e-001 5.856726e-001 5.250000e-001
    endloop
  endfacet
  facet normal 7.071068e-001 7.071068e-001 0.000000e+000
    outer loop
      vertex   6.596267e-001 5.856726e-001 5.250000e-001
      vertex   6.596267e-001 5.856726e-001 2.250000e-001
      vertex   5.856726e-001 6.596267e-001 2.250000e-001
    endloop
  endfacet
  facet normal 7.071068e-001 7.071068e-001 0.000000e+000
    outer loop
      vertex   6.596267e-001 5.856726e-001 5.250000e-001
      vertex   5.856726e-001 6.596267e-001 2.250000e-001
      vertex   5.856726e-001 6.596267e-001 5.250000e-001
    endloop
  endfacet
  facet normal 5.735763e-001 8.191521e-001 0.000000e+000
    outer loop
      vertex   5.856726e-001 6.596267e-001 5.250000e-001
      vertex   5.856726e-001 6.596267e-001 2.250000e-001
      vertex   5.000000e-001 7.196152e-001 2.250000e-001
    endloop
  endfacet
  facet normal 5.735763e-001 8.191521e-001 2.939390e-017
    outer loop
      vertex   5.856726e-001 6.596267e-001 5.250000e-001
      vertex   5.000000e-001 7.196152e-001 2.250000e-001
      vertex   5.000000e-001 7.196152e-001 5.250000e-001
    endloop
  endfacet
  facet normal 4.226184e-001 9.063077e-001 0.000000e+000
    outer loop
      vertex   5.000000e-001 7.196152e-001 5.250000e-001
      vertex   5.000000e-001 7.196152e-001 2.250000e-001
      vertex   4.052121e-001 7.638156e-001 2.250000e-001
    endloop
  endfacet
  facet normal 4.226184e-001 9.063077e-001 0.000000e+000
    outer loop
      vertex   5.000000e-001 7.196152e-001 5.250000e-001
      vertex   4.052121e-001 7.638156e-001 2.250000e-001
      vertex   4.052121e-001 7.638156e-001 5.250000e-001
    endloop
  endfacet
  facet normal 2.588192e-001 9.659258e-001 0.000000e+000
    outer loop
      vertex   4.052121e-001 7.638156e-001 5.250000e-001
      vertex   4.052121e-001 7.638156e-001 2.250000e-001
      vertex   3.041889e-001 7.908847e-001 2.250000e-001
    endloop
  endfacet
  facet normal 2.588192e-001 9.659258e-001 0.000000e+000
    outer loop
      vertex   4.052121e-001 7.638156e-001 5.250000e-001
      vertex   3.041889e-001 7.908847e-001 2.250000e-001
      vertex   3.041889e-001 7.908847e-001 5.250000e-001
    endloop
  endfacet
  facet normal 8.715565e-002 9.961947e-001 0.000000e+000
    outer loop
      vertex   3.041889e-001 7.908847e-001 5.250000e-001
      vertex   3.041889e-001 7.908847e-001 2.250000e-001
      vertex   2.000000e-001 8.000000e-001 2.250000e-001
    endloop
  endfacet
  facet normal 8.715565e-002 9.961947e-001 -3.674237e-018
    outer loop
      vertex   3.041889e-001 7.908847e-001 5.250000e-001
      vertex   2.000000e-001 8.000000e-001 2.250000e-001
      vertex   2.000000e-001 8.000000e-001 5.250000e-001
    endloop
  endfacet
  facet normal -8.715565e-002 9.961947e-001 0.000000e+000
    outer loop
      vertex   -2.000000e-001 8.000000e-001 2.250000e-001
      vertex   -3.041889e-001 7.908847e-001 2.250000e-001
      vertex   -2.000000e-001 8.000000e-001 5.250000e-001
    endloop
  endfacet
  facet normal -8.715565e-002 9.961947e-001 3.674237e-018
    outer loop
      vertex   -2.000000e-001 8.000000e-001 5.250000e-001
      vertex   -3.041889e-001 7.908847e-001 2.250000e-001
      vertex   -3.041889e-001 7.908847e-001 5.250000e-001
    endloop
  endfacet
  facet normal -2.588192e-001 9.659258e-001 0.000000e+000
    outer loop
      vertex   -3.041889e-001 7.908847e-001 5.250000e-001
      vertex   -3.041889e-001 7.908847e-001 2.250000e-001
      vertex   -4.052121e-001 7.638156e-001 2.250000e-001
    endloop
  endfacet
  facet normal -2.588192e-001 9.659258e-001 0.000000e+000
    outer loop
      vertex   -3.041889e-001 7.908847e-001 5.250000e-001
      vertex   -4.052121e-001 7.638156e-001 2.250000e-001
      vertex   -4.052121e-001 7.638156e-001 5.250000e-001
    endloop
  endfacet
  facet normal -4.226184e-001 9.063077e-001 0.000000e+000
    outer loop
      vertex   -4.052121e-001 7.638156e-001 5.250000e-001
      vertex   -4.052121e-001 7.638156e-001 2.250000e-001
      vertex   -5.000000e-001 7.196152e-001 2.250000e-001
    endloop
  endfacet
  facet normal -4.226184e-001 9.063077e-001 0.000000e+000
    outer loop
      vertex   -4.052121e-001 7.638156e-001 5.250000e-001
      vertex   -5.000000e-001 7.196152e-001 2.250000e-001
      vertex   -5.000000e-001 7.196152e-001 5.250000e-001
    endloop
  endfacet
  facet normal -5.735763e-001 8.191521e-001 0.000000e+000
    outer loop
      vertex   -5.000000e-001 7.196152e-001 5.250000e-001
      vertex   -5.000000e-001 7.196152e-001 2.250000e-001
      vertex   -5.856726e-001 6.596267e-001 2.250000e-001
    endloop
  endfacet
  facet normal -5.735763e-001 8.191521e-001 -2.939390e-017
    outer loop
      vertex   -5.000000e-001 7.196152e-001 5.250000e-001
      vertex   -5.856726e-001 6.596267e-001 2.250000e-001
      vertex   -5.856726e-001 6.596267e-001 5.250000e-001
    endloop
  endfacet
  facet normal -7.071068e-001 7.071068e-001 0.000000e+000
    outer loop
      vertex   -5.856726e-001 6.596267e-001 5.250000e-001
      vertex   -5.856726e-001 6.596267e-001 2.250000e-001
      vertex   -6.596267e-001 5.856726e-001 2.250000e-001
    endloop
  endfacet
  facet normal -7.071068e-001 7.071068e-001 0.000000e+000
    outer loop
      vertex   -5.856726e-001 6.596267e-001 5.250000e-001
      vertex   -6.596267e-001 5.856726e-001 2.250000e-001
      vertex   -6.596267e-001 5.856726e-001 5.250000e-001
    endloop
  endfacet
  facet normal -8.191521e-001 5.735763e-001 0.000000e+000
    outer loop
      vertex   -6.596267e-001 5.856726e-001 5.250000e-001
      vertex   -6.596267e-001 5.856726e-001 2.250000e-001
      vertex   -7.196152e-001 5.000000e-001 2.250000e-001
    endloop
  endfacet
  facet normal -8.191521e-001 5.735763e-001 2.939390e-017
    outer loop
      vertex   -6.596267e-001 5.856726e-001 5.250000e-001
      vertex   -7.196152e-001 5.000000e-001 2.250000e-001
      vertex   -7.196152e-001 5.000000e-001 5.250000e-001
    endloop
  endfacet
  facet normal -9.063077e-001 4.226184e-001 0.000000e+000
    outer loop
      vertex   -7.196152e-001 5.000000e-001 5.250000e-001
      vertex   -7.196152e-001 5.000000e-001 2.250000e-001
      vertex   -7.638156e-001 4.052121e-001 2.250000e-001
    endloop
  endfacet
  facet normal -9.063077e-001 4.226184e-001 0.000000e+000
    outer loop
      vertex   -7.196152e-001 5.000000e-001 5.250000e-001
      vertex   -7.638156e-001 4.052121e-001 2.250000e-001
      vertex   -7.638156e-001 4.052121e-001 5.250000e-001
    endloop
  endfacet
  facet normal -9.659258e-001 2.588192e-001 0.000000e+000
    outer loop
      vertex   -7.638156e-001 4.052121e-001 5.250000e-001
      vertex   -7.638156e-001 4.052121e-001 2.250000e-001
      vertex   -7.908847e-001 3.041889e-001 2.250000e-001
    endloop
  endfacet
  facet normal -9.659258e-001 2.588192e-001 0.000000e+000
    outer loop
      vertex   -7.638156e-001 4.052121e-001 5.250000e-001
      vertex   -7.908847e-001 3.041889e-001 2.250000e-001
      vertex   -7.908847e-001 3.041889e-001 5.250000e-001
    endloop
  endfacet
  facet normal -9.961947e-001 8.715565e-002 0.000000e+000
    outer loop
      vertex   -7.908847e-001 3.041889e-001 5.250000e-001
      vertex   -7.908847e-001 3.041889e-001 2.250000e-001
      vertex   -8.000000e-001 2.000000e-001 2.250000e-001
    endloop
  endfacet
  facet normal -9.961947e-001 8.715565e-002 -3.674237e-018
    outer loop
      vertex   -7.908847e-001 3.041889e-001 5.250000e-001
      vertex   -8.000000e-001 2.000000e-001 2.250000e-001
      vertex   -8.000000e-001 2.000000e-001 5.250000e-001
    endloop
  endfacet
  facet normal 0.000000e+000 0.000000e+000 -1.000000e+000
    outer loop
      vertex   -3.041889e-001 -7.908847e-001 2.250000e-001
      vertex   -8.000000e-001 -2.000000e-001 2.250000e-001
      vertex   -2.000000e-001 -8.000000e-001 2.250000e-001
    endloop
  endfacet
  facet normal 0.000000e+000 0.000000e+000 -1.000000e+000
    outer loop
      vertex   -2.000000e-001 -8.000000e-001 2.250000e-001
      vertex   -8.000000e-001 -2.000000e-001 2.250000e-001
      vertex   8.000000e-001 -2.000000e-001 2.250000e-001
    endloop
  endfacet
  facet normal 0.000000e+000 0.000000e+000 -1.000000e+000
    outer loop
      vertex   -2.000000e-001 -8.000000e-001 2.250000e-001
      vertex   8.000000e-001 -2.000000e-001 2.250000e-001
      vertex   2.000000e-001 -8.000000e-001 2.250000e-001
    endloop
  endfacet
  facet normal 0.000000e+000 0.000000e+000 -1.000000e+000
    outer loop
      vertex   2.000000e-001 -8.000000e-001 2.250000e-001
      vertex   8.000000e-001 -2.000000e-001 2.250000e-001
      vertex   3.041889e-001 -7.908847e-001 2.250000e-001
    endloop
  endfacet
  facet normal 0.000000e+000 0.000000e+000 -1.000000e+000
    outer loop
      vertex   3.041889e-001 -7.908847e-001 2.250000e-001
      vertex   8.000000e-001 -2.000000e-001 2.250000e-001
      vertex   4.052121e-001 -7.638156e-001 2.250000e-001
    endloop
  endfacet
  facet normal 0.000000e+000 0.000000e+000 -1.000000e+000
    outer loop
      vertex   4.052121e-001 -7.638156e-001 2.250000e-001
      vertex   8.000000e-001 -2.000000e-001 2.250000e-001
      vertex   5.000000e-001 -7.196152e-001 2.250000e-001
    endloop
  endfacet
  facet normal 0.000000e+000 0.000000e+000 -1.000000e+000
    outer loop
      vertex   5.000000e-001 -7.196152e-001 2.250000e-001
      vertex   8.000000e-001 -2.000000e-001 2.250000e-001
      vertex   7.908847e-001 -3.041889e-001 2.250000e-001
    endloop
  endfacet
  facet normal 0.000000e+000 0.000000e+000 -1.000000e+000
    outer loop
      vertex   5.000000e-001 -7.196152e-001 2.250000e-001
      vertex   7.908847e-001 -3.041889e-001 2.250000e-001
      vertex   7.638156e-001 -4.052121e-001 2.250000e-001
    endloop
  endfacet
  facet normal 0.000000e+000 0.000000e+000 -1.000000e+000
    outer loop
      vertex   -3.041889e-001 -7.908847e-001 2.250000e-001
      vertex   -4.052121e-001 -7.638156e-001 2.250000e-001
      vertex   -8.000000e-001 -2.000000e-001 2.250000e-001
    endloop
  endfacet
  facet normal 0.000000e+000 0.000000e+000 -1.000000e+000
    outer loop
      vertex   -8.000000e-001 -2.000000e-001 2.250000e-001
      vertex   -4.052121e-001 -7.638156e-001 2.250000e-001
      vertex   -7.908847e-001 -3.041889e-001 2.250000e-001
    endloop
  endfacet
  facet normal 0.000000e+000 0.000000e+000 -1.000000e+000
    outer loop
      vertex   -7.908847e-001 -3.041889e-001 2.250000e-001
      vertex   -4.052121e-001 -7.638156e-001 2.250000e-001
      vertex   -7.638156e-001 -4.052121e-001 2.250000e-001
    endloop
  endfacet
  facet normal 0.000000e+000 0.000000e+000 -1.000000e+000
    outer loop
      vertex   -7.638156e-001 -4.052121e-001 2.250000e-001
      vertex   -4.052121e-001 -7.638156e-001 2.250000e-001
      vertex   -7.196152e-001 -5.000000e-001 2.250000e-001
    endloop
  endfacet
  facet normal 0.000000e+000 0.000000e+000 -1.000000e+000
    outer loop
      vertex   -7.196152e-001 -5.000000e-001 2.250000e-001
      vertex   -4.052121e-001 -7.638156e-001 2.250000e-001
      vertex   -6.596267e-001 -5.856726e-001 2.250000e-001
    endloop
  endfacet
  facet normal 0.000000e+000 0.000000e+000 -1.000000e+000
    outer loop
      vertex   -6.596267e-001 -5.856726e-001 2.250000e-001
      vertex   -4.052121e-001 -7.638156e-001 2.250000e-001
      vertex   -5.856726e-001 -6.596267e-001 2.250000e-001
    endloop
  endfacet
  facet normal 0.000000e+000 0.000000e+000 -1.000000e+000
    outer loop
      vertex   -5.856726e-001 -6.596267e-001 2.250000e-001
      vertex   -4.052121e-001 -7.638156e-001 2.250000e-001
      vertex   -5.000000e-001 -7.196152e-001 2.250000e-001
    endloop
  endfacet
  facet normal 0.000000e+000 0.000000e+000 -1.000000e+000
    outer loop
      vertex   8.000000e-001 -2.000000e-001 2.250000e-001
      vertex   -8.000000e-001 -2.000000e-001 2.250000e-001
      vertex   8.000000e-001 2.000000e-001 2.250000e-001
    endloop
  endfacet
  facet normal -0.000000e+000 0.000000e+000 -1.000000e+000
    outer loop
      vertex   8.000000e-001 2.000000e-001 2.250000e-001
      vertex   -8.000000e-001 -2.000000e-001 2.250000e-001
      vertex   -8.000000e-001 2.000000e-001 2.250000e-001
    endloop
  endfacet
  facet normal 0.000000e+000 0.000000e+000 -1.000000e+000
    outer loop
      vertex   8.000000e-001 2.000000e-001 2.250000e-001
      vertex   -8.000000e-001 2.000000e-001 2.250000e-001
      vertex   2.000000e-001 8.000000e-001 2.250000e-001
    endloop
  endfacet
  facet normal -0.000000e+000 0.000000e+000 -1.000000e+000
    outer loop
      vertex   2.000000e-001 8.000000e-001 2.250000e-001
      vertex   -8.000000e-001 2.000000e-001 2.250000e-001
      vertex   -2.000000e-001 8.000000e-001 2.250000e-001
    endloop
  endfacet
  facet normal 0.000000e+000 0.000000e+000 -1.000000e+000
    outer loop
      vertex   -2.000000e-001 8.000000e-001 2.250000e-001
      vertex   -8.000000e-001 2.000000e-001 2.250000e-001
      vertex   -7.908847e-001 3.041889e-001 2.250000e-001
    endloop
  endfacet
  facet normal 0.000000e+000 0.000000e+000 -1.000000e+000
    outer loop
      vertex   -2.000000e-001 8.000000e-001 2.250000e-001
      vertex   -7.908847e-001 3.041889e-001 2.250000e-001
      vertex   -7.638156e-001 4.052121e-001 2.250000e-001
    endloop
  endfacet
  facet normal 0.000000e+000 0.000000e+000 -1.000000e+000
    outer loop
      vertex   -7.638156e-001 4.052121e-001 2.250000e-001
      vertex   -7.196152e-001 5.000000e-001 2.250000e-001
      vertex   -2.000000e-001 8.000000e-001 2.250000e-001
    endloop
  endfacet
  facet normal 0.000000e+000 0.000000e+000 -1.000000e+000
    outer loop
      vertex   -2.000000e-001 8.000000e-001 2.250000e-001
      vertex   -7.196152e-001 5.000000e-001 2.250000e-001
      vertex   -6.596267e-001 5.856726e-001 2.250000e-001
    endloop
  endfacet
  facet normal 0.000000e+000 0.000000e+000 -1.000000e+000
    outer loop
      vertex   -2.000000e-001 8.000000e-001 2.250000e-001
      vertex   -6.596267e-001 5.856726e-001 2.250000e-001
      vertex   -5.856726e-001 6.596267e-001 2.250000e-001
    endloop
  endfacet
  facet normal 0.000000e+000 0.000000e+000 -1.000000e+000
    outer loop
      vertex   -5.856726e-001 6.596267e-001 2.250000e-001
      vertex   -5.000000e-001 7.196152e-001 2.250000e-001
      vertex   -2.000000e-001 8.000000e-001 2.250000e-001
    endloop
  endfacet
  facet normal 0.000000e+000 0.000000e+000 -1.000000e+000
    outer loop
      vertex   -2.000000e-001 8.000000e-001 2.250000e-001
      vertex   -5.000000e-001 7.196152e-001 2.250000e-001
      vertex   -4.052121e-001 7.638156e-001 2.250000e-001
    endloop
  endfacet
  facet normal 0.000000e+000 0.000000e+000 -1.000000e+000
    outer loop
      vertex   -2.000000e-001 8.000000e-001 2.250000e-001
      vertex   -4.052121e-001 7.638156e-001 2.250000e-001
      vertex   -3.041889e-001 7.908847e-001 2.250000e-001
    endloop
  endfacet
  facet normal -0.000000e+000 -0.000000e+000 -1.000000e+000
    outer loop
      vertex   3.041889e-001 7.908847e-001 2.250000e-001
      vertex   4.052121e-001 7.638156e-001 2.250000e-001
      vertex   2.000000e-001 8.000000e-001 2.250000e-001
    endloop
  endfacet
  facet normal 0.000000e+000 0.000000e+000 -1.000000e+000
    outer loop
      vertex   2.000000e-001 8.000000e-001 2.250000e-001
      vertex   4.052121e-001 7.638156e-001 2.250000e-001
      vertex   5.000000e-001 7.196152e-001 2.250000e-001
    endloop
  endfacet
  facet normal 0.000000e+000 0.000000e+000 -1.000000e+000
    outer loop
      vertex   2.000000e-001 8.000000e-001 2.250000e-001
      vertex   5.000000e-001 7.196152e-001 2.250000e-001
      vertex   5.856726e-001 6.596267e-001 2.250000e-001
    endloop
  endfacet
  facet normal -0.000000e+000 -0.000000e+000 -1.000000e+000
    outer loop
      vertex   5.856726e-001 6.596267e-001 2.250000e-001
      vertex   6.596267e-001 5.856726e-001 2.250000e-001
      vertex   2.000000e-001 8.000000e-001 2.250000e-001
    endloop
  endfacet
  facet normal 0.000000e+000 0.000000e+000 -1.000000e+000
    outer loop
      vertex   2.000000e-001 8.000000e-001 2.250000e-001
      vertex   6.596267e-001 5.856726e-001 2.250000e-001
      vertex   7.196152e-001 5.000000e-001 2.250000e-001
    endloop
  endfacet
  facet normal 0.000000e+000 0.000000e+000 -1.000000e+000
    outer loop
      vertex   2.000000e-001 8.000000e-001 2.250000e-001
      vertex   7.196152e-001 5.000000e-001 2.250000e-001
      vertex   7.638156e-001 4.052121e-001 2.250000e-001
    endloop
  endfacet
  facet normal -0.000000e+000 -0.000000e+000 -1.000000e+000
    outer loop
      vertex   7.638156e-001 4.052121e-001 2.250000e-001
      vertex   7.908847e-001 3.041889e-001 2.250000e-001
      vertex   2.000000e-001 8.000000e-001 2.250000e-001
    endloop
  endfacet
  facet normal 0.000000e+000 0.000000e+000 -1.000000e+000
    outer loop
      vertex   2.000000e-001 8.000000e-001 2.250000e-001
      vertex   7.908847e-001 3.041889e-001 2.250000e-001
      vertex   8.000000e-001 2.000000e-001 2.250000e-001
    endloop
  endfacet
  facet normal 0.000000e+000 0.000000e+000 -1.000000e+000
    outer loop
      vertex   7.638156e-001 -4.052121e-001 2.250000e-001
      vertex   7.196152e-001 -5.000000e-001 2.250000e-001
      vertex   5.000000e-001 -7.196152e-001 2.250000e-001
    endloop
  endfacet
  facet normal 0.000000e+000 0.000000e+000 -1.000000e+000
    outer loop
      vertex   5.000000e-001 -7.196152e-001 2.250000e-001
      vertex   7.196152e-001 -5.000000e-001 2.250000e-001
      vertex   6.596267e-001 -5.856726e-001 2.250000e-001
    endloop
  endfacet
  facet normal 0.000000e+000 0.000000e+000 -1.000000e+000
    outer loop
      vertex   5.000000e-001 -7.196152e-001 2.250000e-001
      vertex   6.596267e-001 -5.856726e-001 2.250000e-001
      vertex   5.856726e-001 -6.596267e-001 2.250000e-001
    endloop
  endfacet
  facet normal 0.000000e+000 -1.000000e+000 0.000000e+000
    outer loop
      vertex   -2.000000e-001 -8.000000e-001 5.250000e-001
      vertex   -2.000000e-001 -8.000000e-001 2.250000e-001
      vertex   2.000000e-001 -8.000000e-001 5.250000e-001
    endloop
  endfacet
  facet normal 0.000000e+000 -1.000000e+000 -0.000000e+000
    outer loop
      vertex   2.000000e-001 -8.000000e-001 5.250000e-001
      vertex   -2.000000e-001 -8.000000e-001 2.250000e-001
      vertex   2.000000e-001 -8.000000e-001 2.250000e-001
    endloop
  endfacet
  facet normal 0.000000e+000 1.000000e+000 0.000000e+000
    outer loop
      vertex   2.000000e-001 8.000000e-001 5.250000e-001
      vertex   2.000000e-001 8.000000e-001 2.250000e-001
      vertex   -2.000000e-001 8.000000e-001 5.250000e-001
    endloop
  endfacet
  facet normal 0.000000e+000 1.000000e+000 0.000000e+000
    outer loop
      vertex   -2.000000e-001 8.000000e-001 5.250000e-001
      vertex   2.000000e-001 8.000000e-001 2.250000e-001
      vertex   -2.000000e-001 8.000000e-001 2.250000e-001
    endloop
  endfacet
endsolid
